<?xml version="1.0" encoding="UTF-8"?>
<svg width="282px" height="231px" viewBox="0 0 282 231" version="1.1" xmlns="http://www.w3.org/2000/svg" xmlns:xlink="http://www.w3.org/1999/xlink">
    <title>undraw_analysis_4jis</title>
    <defs>
        <linearGradient x1="49.9984429%" y1="100%" x2="49.9984429%" y2="0%" id="linearGradient-1">
            <stop stop-color="#808080" stop-opacity="0.25" offset="0%"></stop>
            <stop stop-color="#808080" stop-opacity="0.12" offset="54%"></stop>
            <stop stop-color="#808080" stop-opacity="0.1" offset="100%"></stop>
        </linearGradient>
        <linearGradient x1="56983%" y1="55149%" x2="56983%" y2="38082%" id="linearGradient-2">
            <stop stop-color="#808080" stop-opacity="0.25" offset="0%"></stop>
            <stop stop-color="#808080" stop-opacity="0.12" offset="54%"></stop>
            <stop stop-color="#808080" stop-opacity="0.1" offset="100%"></stop>
        </linearGradient>
        <linearGradient x1="17150%" y1="31920%" x2="17150%" y2="31902%" id="linearGradient-3">
            <stop stop-color="#808080" stop-opacity="0.25" offset="0%"></stop>
            <stop stop-color="#808080" stop-opacity="0.12" offset="54%"></stop>
            <stop stop-color="#808080" stop-opacity="0.1" offset="100%"></stop>
        </linearGradient>
        <linearGradient x1="22801%" y1="85375%" x2="22801%" y2="25026%" id="linearGradient-4">
            <stop stop-color="#808080" stop-opacity="0.25" offset="0%"></stop>
            <stop stop-color="#808080" stop-opacity="0.12" offset="54%"></stop>
            <stop stop-color="#808080" stop-opacity="0.1" offset="100%"></stop>
        </linearGradient>
        <linearGradient x1="94405%" y1="84994%" x2="94405%" y2="26842%" id="linearGradient-5">
            <stop stop-color="#808080" stop-opacity="0.25" offset="0%"></stop>
            <stop stop-color="#808080" stop-opacity="0.12" offset="54%"></stop>
            <stop stop-color="#808080" stop-opacity="0.1" offset="100%"></stop>
        </linearGradient>
    </defs>
    <g id="Page-1" stroke="none" stroke-width="1" fill="none" fill-rule="evenodd">
        <g id="Walkthrough-3" transform="translate(-47, -108)" fill-rule="nonzero">
            <g id="undraw_analysis_4jis" transform="translate(47, 108)">
                <ellipse id="Oval" fill="#6C63FF" opacity="0.1" cx="48.5" cy="223" rx="48.5" ry="8"></ellipse>
                <ellipse id="Oval" fill="#6C63FF" opacity="0.1" cx="233.5" cy="220" rx="48.5" ry="8"></ellipse>
                <path d="M75.175693,0.122455639 C62.5008463,0.802022437 49.6937403,4.51477763 39.8046044,12.4955438 C31.1278452,19.5011593 24.8703285,30.5151138 26.3968209,41.5815553 C28.1988534,54.6452601 39.8238922,64.1481454 44.1360955,76.6096325 C46.9107848,84.6207858 46.4781868,93.4606791 44.6623772,101.748079 C43.494087,107.087927 41.6975652,112.4333 38.2450472,116.665399 C32.0261061,124.278757 20.8033559,127.952838 17.7476157,137.303787 C14.4246015,147.472427 22.7982666,157.444932 30.6649377,164.67707 C36.9444977,170.447862 43.521641,176.191031 51.435154,179.354055 C57.2214971,181.669002 63.501057,182.500504 69.7255089,182.832 C86.913631,183.736145 104.098032,180.983356 120.149356,174.754548 C127.839681,171.762797 135.279265,167.96993 143.327793,166.166039 C160.480167,162.320686 178.128513,167.864956 195.512341,170.461675 C210.414045,172.681069 225.557757,172.725732 240.472227,170.594273 C249.857124,169.251714 259.553382,166.829031 266.620987,160.497458 C273.785031,154.069198 277.367053,144.118793 276.970275,134.477784 C276.573497,124.836775 272.517546,115.554887 266.543836,107.985729 C258.828711,98.2093593 248.187351,91.2534682 238.929202,82.9218688 C229.502141,74.433681 221.482792,64.4952241 215.172131,53.4794992 C211.535001,47.1258258 208.440685,40.3826447 203.728948,34.7886497 C196.380293,26.070305 185.7224,20.885155 175.072773,16.8795784 C150.505614,7.65293975 125.023661,5.77446242 99.4094489,1.69706163 C91.4050076,0.418039572 83.2848395,-0.302964226 75.175693,0.122455639 Z" id="Shape" fill="#6C63FF" opacity="0.1"></path>
                <g id="Group" opacity="0.7" transform="translate(71, 20)">
                    <rect id="Rectangle-path" fill="#F6F7F9" x="0.147980769" y="81.485597" width="52.3303846" height="29.4647015"></rect>
                    <g opacity="0.2" transform="translate(4.3846, 88.9104)" fill="#6C63FF" id="Oval">
                        <ellipse cx="5.61504808" cy="5.65492537" rx="5.44788462" ry="5.48925373"></ellipse>
                    </g>
                    <g opacity="0.2" transform="translate(21.9231, 87.806)" fill="#6C63FF" id="Rectangle-path">
                        <polygon points="0.167163462 0.254029851 23.904375 0.254029851 23.904375 1.7588806 0.167163462 1.7588806"></polygon>
                    </g>
                    <g opacity="0.2" transform="translate(21.9231, 91.6716)" fill="#6C63FF" id="Rectangle-path">
                        <rect x="0.167163462" y="0.223656716" width="12.0933173" height="1.50485075"></rect>
                    </g>
                    <g opacity="0.2" transform="translate(21.9231, 95.5373)" fill="#6C63FF" id="Rectangle-path">
                        <polygon points="0.167163462 0.193283582 19.7252885 0.193283582 19.7252885 1.69813433 0.167163462 1.69813433"></polygon>
                    </g>
                    <g opacity="0.2" transform="translate(21.9231, 99.403)" fill="#6C63FF" id="Rectangle-path">
                        <polygon points="0.167163462 0.162910448 23.904375 0.162910448 23.904375 1.66776119 0.167163462 1.66776119"></polygon>
                    </g>
                    <g opacity="0.2" transform="translate(39.1875, 104.9254)" fill="#6C63FF" id="Rectangle-path">
                        <polygon points="0.0739903846 0.176716418 6.64269231 0.176716418 6.64269231 3.08425373 0.0739903846 3.08425373"></polygon>
                    </g>
                    <rect id="Rectangle-path" fill="#F6F7F9" x="44.2051442" y="0.0552238806" width="52.3303846" height="29.4647015"></rect>
                    <g opacity="0.2" transform="translate(48.5048, 7.4552)" fill="#6C63FF" id="Oval">
                        <ellipse cx="5.55475962" cy="5.67977612" rx="5.44788462" ry="5.48925373"></ellipse>
                    </g>
                    <g opacity="0.2" transform="translate(66.0433, 6.6269)" fill="#6C63FF" id="Rectangle-path">
                        <rect x="0.106875" y="0.00276119403" width="23.7372115" height="1.50485075"></rect>
                    </g>
                    <g opacity="0.2" transform="translate(66.0433, 10.2164)" fill="#6C63FF" id="Rectangle-path">
                        <polygon points="0.106875 0.248507463 12.2001923 0.248507463 12.2001923 1.75335821 0.106875 1.75335821"></polygon>
                    </g>
                    <g opacity="0.2" transform="translate(66.0433, 14.0821)" fill="#6C63FF" id="Rectangle-path">
                        <rect x="0.106875" y="0.218134328" width="19.558125" height="1.50485075"></rect>
                    </g>
                    <g opacity="0.2" transform="translate(66.0433, 17.9478)" fill="#6C63FF" id="Rectangle-path">
                        <rect x="0.106875" y="0.190522388" width="23.7372115" height="1.50485075"></rect>
                    </g>
                    <g opacity="0.2" transform="translate(83.3077, 23.4701)" fill="#6C63FF" id="Rectangle-path">
                        <polygon points="0.0109615385 0.201567164 6.57966346 0.201567164 6.57966346 3.10910448 0.0109615385 3.10910448"></polygon>
                    </g>
                    <polygon id="Rectangle-path" fill="#F6F7F9" points="61.6230288 49.5247761 113.953413 49.5247761 113.953413 78.9894776 61.6230288 78.9894776"></polygon>
                    <g opacity="0.2" transform="translate(65.7692, 56.8806)" fill="#6C63FF" id="Oval">
                        <ellipse cx="5.70548077" cy="5.72671642" rx="5.44788462" ry="5.48925373"></ellipse>
                    </g>
                    <g opacity="0.2" transform="translate(83.3077, 56.0522)" fill="#6C63FF" id="Rectangle-path">
                        <rect x="0.260336538" y="0.0497014925" width="23.7372115" height="1.50485075"></rect>
                    </g>
                    <g opacity="0.2" transform="translate(83.3077, 59.9179)" fill="#6C63FF" id="Rectangle-path">
                        <rect x="0.260336538" y="0.0193283582" width="12.0933173" height="1.50485075"></rect>
                    </g>
                    <g opacity="0.2" transform="translate(83.3077, 63.5075)" fill="#6C63FF" id="Rectangle-path">
                        <rect x="0.260336538" y="0.265074627" width="19.558125" height="1.50485075"></rect>
                    </g>
                    <g opacity="0.2" transform="translate(83.3077, 67.3731)" fill="#6C63FF" id="Rectangle-path">
                        <rect x="0.260336538" y="0.234701493" width="23.7372115" height="1.50485075"></rect>
                    </g>
                    <g opacity="0.2" transform="translate(100.5721, 72.8955)" fill="#6C63FF" id="Rectangle-path">
                        <polygon points="0.164423077 0.248507463 6.733125 0.248507463 6.733125 3.15604478 0.164423077 3.15604478"></polygon>
                    </g>
                </g>
                <rect id="Rectangle-path" fill="url(#linearGradient-1)" x="53" y="37" width="88" height="50"></rect>
                <polygon id="Rectangle-path" fill="#F6F7F9" points="53 38 140 38 140 87 53 87"></polygon>
                <g id="Group" opacity="0.2" transform="translate(61, 51)" fill="#6C63FF">
                    <circle id="Oval" cx="9.57089552" cy="9.50283582" r="9.34686567"></circle>
                </g>
                <g id="Group" opacity="0.2" transform="translate(90, 49)" fill="#6C63FF">
                    <rect id="Rectangle-path" x="0.253793103" y="0.132" width="39.6193103" height="2.709"></rect>
                </g>
                <g id="Group" opacity="0.2" transform="translate(90, 55)" fill="#6C63FF">
                    <polygon id="Rectangle-path" points="0.2576 0.144 20.7424 0.144 20.7424 2.853 0.2576 2.853"></polygon>
                </g>
                <g id="Group" opacity="0.2" transform="translate(90, 62)" fill="#6C63FF">
                    <polygon id="Rectangle-path" points="0.253 0.153 32.79375 0.153 32.79375 2.862 0.253 2.862"></polygon>
                </g>
                <g id="Group" opacity="0.2" transform="translate(90, 68)" fill="#6C63FF">
                    <rect id="Rectangle-path" x="0.253793103" y="0.162" width="39.6193103" height="2.709"></rect>
                </g>
                <rect id="Rectangle-path" fill="#6C63FF" x="119" y="77" width="11" height="4"></rect>
                <polygon id="Rectangle-path" fill="url(#linearGradient-2)" points="115 105 199 105 199 152 115 152"></polygon>
                <rect id="Rectangle-path" fill="#F6F7F9" x="116" y="105" width="83" height="46"></rect>
                <g id="Group" opacity="0.2" transform="translate(122, 117)" fill="#6C63FF">
                    <circle id="Oval" cx="8.983125" cy="8.92125" r="8.82"></circle>
                </g>
                <g id="Group" opacity="0.2" transform="translate(150, 116)" fill="#6C63FF">
                    <rect id="Rectangle-path" x="0.148695652" y="0.165" width="37.6227536" height="2.577"></rect>
                </g>
                <g id="Group" opacity="0.2" transform="translate(150, 122)" fill="#6C63FF">
                    <rect id="Rectangle-path" x="0.144507042" y="0.141" width="18.6253521" height="2.577"></rect>
                </g>
                <g id="Group" opacity="0.2" transform="translate(150, 128)" fill="#6C63FF">
                    <rect id="Rectangle-path" x="0.146842105" y="0.0844444444" width="30.6111404" height="1.90888889"></rect>
                </g>
                <g id="Group" opacity="0.2" transform="translate(150, 134)" fill="#6C63FF">
                    <rect id="Rectangle-path" x="0.148695652" y="0.0644444444" width="37.6227536" height="1.90888889"></rect>
                </g>
                <g id="Group" opacity="0.5" transform="translate(177, 142)" fill="#6C63FF">
                    <polygon id="Rectangle-path" points="0.0923076923 0.252777778 9.78717949 0.252777778 9.78717949 4.86666667 0.0923076923 4.86666667"></polygon>
                </g>
                <g id="Group" opacity="0.1" transform="translate(22, 79)" fill="url(#linearGradient-3)">
                    <path d="M0.215,0.23 L0.4,0.27 C0.345959002,0.232935874 0.279525796,0.218571937 0.215,0.23 Z" id="Shape"></path>
                </g>
                <path d="M65.4692314,110.868467 C64.8600197,106.786686 61.144104,97.2643639 61.144104,97.2643639 L61.144104,97.2643639 C61.0779453,96.9893113 61.0062733,96.6977555 60.9235749,96.4172018 C58.2854953,87.3707205 54.6357384,86.5703174 54.6357384,86.5703174 L41.5611183,83.7895352 C41.6690293,83.8569502 41.7626761,83.9447838 41.8367797,84.0480847 L41.6300336,84.081091 C41.0299953,83.3748857 40.6336156,82.5192272 40.4832822,81.6056173 C40.4584727,81.4708415 40.4364198,81.3305646 40.4198801,81.1875373 C42.3209944,79.3401746 43.3293343,76.7632384 43.1856447,74.1192861 C43.0419552,71.4753338 41.7602544,69.0223042 39.6700811,67.390897 C39.535007,67.2836265 39.3944197,67.181857 39.2510757,67.0800875 C39.8685573,66.4282128 39.8878536,65.5177886 39.427499,64.6046138 C38.3965254,62.4674548 36.1581548,61.1169464 33.8536256,60.4595706 C32.0949058,59.9562242 30.187329,59.7939432 28.4451489,60.3440485 C27.4500113,60.6576085 26.5458419,61.18846 25.6141064,61.653299 C23.8774395,62.5197148 21.9643494,63.2045959 20.6522012,64.626618 C20.346217,64.9594317 20.067799,65.3830128 20.1560107,65.8203465 C20.224926,66.1476591 20.4812911,66.397957 20.6494446,66.6895128 C21.0215875,67.338637 20.925106,68.1555433 20.6742541,68.8624286 C20.4234022,69.5693139 20.0429895,70.2376918 19.8638096,70.9528287 C19.6846297,71.6679655 19.7563016,72.5316308 20.3021112,73.0487297 C20.5672898,73.255793 20.8433429,73.4486034 21.1290954,73.6263403 C21.4285932,73.8792791 21.6911757,74.1727592 21.9092172,74.4982571 L23.4584342,76.5859067 C24.1815912,77.5113927 24.8269903,78.4948327 25.388064,79.5262193 C25.7712333,80.2826141 26.0717043,81.0940194 26.5871911,81.7706489 C26.7388462,81.9718528 26.9116605,82.1562727 27.1026779,82.3207541 C27.0530589,82.3015004 27.0006832,82.2849973 26.9510641,82.2629931 C27.4123962,82.7117873 28.0384193,82.9514981 28.6822177,82.9258699 L28.7594029,82.9258699 C28.877579,82.9239572 28.9907229,82.8778179 29.0764135,82.7965952 L29.0764135,83.0716478 C29.1039797,84.07559 29.101223,85.1427942 29.0295511,86.1439858 L28.9082601,86.0834742 C28.5415547,85.8997538 28.1011995,85.9459481 27.7808049,86.2017468 L15.7371584,95.8285891 C15.7371584,95.8285891 13.1211318,99.4042734 13.4850048,105.565452 L11.3761951,114.812722 C11.3761951,114.812722 8.73811553,122.659974 10.7669834,128.262796 C12.7958513,133.865618 13.9729255,137.06448 13.9729255,137.06448 C13.9729255,137.06448 14.78337,143.429198 16.0017934,143.940796 C17.2202168,144.452394 17.74673,144.74395 17.74673,144.74395 L17.9893121,146.264991 L17.9893121,146.264991 C17.9893121,146.264991 18.0692539,146.410769 18.2125978,146.663817 C19.1002275,148.201362 22.3833548,153.630901 24.2936883,153.05329 C24.532301,154.52705 24.6365599,156.019355 24.6051856,157.511893 L26.4907096,170.164315 C26.4907096,170.164315 27.8083711,173.605223 27.7284293,175.406818 C27.6484875,177.208413 29.2693765,179.771903 29.2693765,179.771903 C28.2853584,181.567528 27.9969322,183.661342 28.458932,185.655279 C29.2307839,189.019173 30.2038686,204.548645 30.2038686,204.548645 L31.6235248,208.311365 L31.5821756,212.712207 C31.4646225,213.426979 31.1646322,214.099519 30.7110856,214.665081 C29.7958898,215.65527 29.8565353,216.799489 27.6788102,218.149998 C25.5010852,219.500506 24.095212,220.009354 24.095212,221.810948 C24.0926934,222.059843 24.0705724,222.308155 24.0290533,222.55359 C23.8250639,223.871093 23.4308681,224.580728 27.4748208,224.965802 C32.2217101,225.414138 35.3863029,222.322546 35.3863029,222.322546 C35.3863029,222.322546 36.0837263,221.060055 39.3723668,220.551207 C39.3723668,220.551207 40.4943086,220.490696 40.5577108,219.497756 C40.5797637,219.15669 40.5742505,218.502065 40.5439277,217.781427 C40.491552,216.406164 40.3592346,214.805358 40.1855679,214.725592 C39.9677954,214.629324 39.5818694,213.245809 39.4495519,212.745213 L40.3647478,212.745213 C40.3647478,212.745213 41.2165415,206.380495 40.3647478,202.254706 C39.5129541,198.128916 40.284806,195.210608 40.284806,195.210608 L40.1221658,184.324024 C40.1221658,184.324024 38.9726577,183.160552 39.8740705,181.042647 C40.7754833,178.924741 39.8740705,168.434234 39.8740705,168.434234 C39.8740705,168.434234 40.2021076,164.671514 41.1338431,163.791345 C42.0655786,162.911177 41.1807055,158.27654 41.1338431,158.034493 L42.7878115,163.590557 C42.7878115,163.590557 43.5183142,174.639421 45.062018,176.641804 L45.5085895,181.642261 C45.5085895,181.642261 48.6731823,186.246642 48.0639707,188.730368 C47.454759,191.214093 48.7145316,200.178058 48.7145316,200.178058 L48.7145316,209.345563 C48.7145316,209.345563 47.2921187,213.028518 49.282394,214.34877 L50.139701,214.315764 C49.8474999,214.590817 49.6379972,214.97314 49.3127168,215.311455 C48.9323041,215.702029 48.7172882,217.187314 48.5959972,218.463558 C48.4940024,219.544515 48.4609231,220.474193 48.4609231,220.474193 C48.4609231,220.474193 49.3127168,221.824701 50.8950132,221.915468 C52.4773096,222.006236 57.7121196,226 57.7121196,226 C57.7121196,226 62.8890407,226 64.2259985,225.724947 L64.3059403,225.705694 C64.7354194,225.569115 65.0963481,225.273925 65.314861,224.880536 C65.584571,224.425064 65.6721816,223.884846 65.5601996,223.367746 C65.3920462,222.578345 64.7662948,221.71743 63.3742047,220.977539 C59.9036277,219.148439 59.3881409,217.437611 59.3881409,217.437611 L57.1139344,214.037961 L57.4392148,214.037961 C57.4392148,214.037961 57.237982,210.434771 59.7106647,206.391498 L59.5507811,188.579089 C59.5507811,188.579089 60.5624585,182.453667 58.8202784,179.131031 C58.8202784,179.131031 58.6769345,175.607606 59.8429822,174.52665 C61.0090299,173.445693 58.2910085,162.517851 58.2910085,162.517851 C58.2910085,162.517851 57.7396857,156.653729 57.0670719,151.301205 L57.0670719,151.301205 C59.8043896,153.892201 62.6464586,144.559665 63.1316227,142.901097 L63.2032947,142.901097 C63.2032947,142.901097 63.1895116,142.857089 63.1702153,142.780074 C63.150919,142.703059 63.2032947,142.661802 63.2032947,142.661802 L63.2032947,142.661802 C63.2032947,142.648049 62.5968396,140.502638 63.0406544,140.939972 C63.4844693,141.377306 64.5843583,139.740743 64.5843583,139.740743 C64.5843583,139.740743 64.421718,130.812534 66.3292949,126.312673 C68.2368718,121.812812 65.4692314,110.868467 65.4692314,110.868467 Z M57.3124106,116.548304 L57.3261936,116.52355 C57.601855,121.975093 57.2710614,133.607069 57.2710614,133.607069 C57.2710614,133.607069 56.8961619,135.097854 56.4936962,136.85269 L56.2042518,125.801075 L56.2042518,125.801075 L55.9285904,115.393083 L57.3124106,116.548304 Z M22.3778415,112.791085 C22.3778415,112.791085 23.7561485,130.003879 22.3778415,132.484854 C21.9836457,133.191739 21.6556087,134.44873 21.3827039,135.887255 C20.9278626,134.693527 19.9630477,131.89074 20.3076244,130.405456 C20.7541959,128.480088 19.4144815,123.438373 19.4144815,123.3201 C19.4144815,123.201828 19.2931905,120.517314 20.2662752,118.454419 C21.23936,116.391524 20.5915557,115.511356 20.5915557,115.511356 C20.5915557,115.511356 21.4047568,112.150213 22.3778415,112.791085 Z" id="Shape" fill="url(#linearGradient-4)"></path>
                <path d="M25.7962281,151.281612 C24.6780892,156.38865 20.2209563,148.664121 19.2056347,146.81162 L19,146.427793 L19.4832416,144.079515 L22.0382532,143 C22.4418441,143.218862 22.8240516,143.477732 23.179526,143.772986 C24.5855536,144.903145 26.659894,147.326056 25.7962281,151.281612 Z" id="Shape" fill="#EFB7B9"></path>
                <path d="M63,143.300658 L62.9691993,143.414565 C62.9691993,143.449002 62.9439988,143.488737 62.9299985,143.539068 C62.4539879,145.128466 59.6231254,154.044992 56.890265,151.568179 C53.899799,148.850307 55.3530311,142.609269 55.3530311,142.609269 L55.3810317,142.609269 L61.6727707,142 L62.9187982,143.213241 L62.9187982,143.213241 L63,143.300658 Z" id="Shape" fill="#EFB7B9"></path>
                <path d="M60.4159577,189.333602 L60.5753484,207.068054 C58.1145795,211.096103 58.3131188,214.682722 58.3131188,214.682722 L50.2037669,215 C48.2239665,213.686746 49.6445012,210.020117 49.6445012,210.020117 L49.6445012,200.890792 C49.6445012,200.890792 48.3777645,191.968387 48.9817714,189.485343 C49.5857783,187.002299 46.4371127,182.430739 46.4371127,182.430739 L45.9952928,177.450856 C44.4573123,175.458903 43.7302669,164.456259 43.7302669,164.456259 L42.0776369,158.938384 C42.1195819,159.178411 42.9780546,163.816186 42.0776369,164.668698 C41.1772192,165.521209 40.8248819,169.292677 40.8248819,169.292677 C40.8248819,169.292677 41.7141143,179.735257 40.8248819,181.845844 C39.9356495,183.956432 41.0653661,185.15657 41.0653661,185.15657 L41.2303495,195.996436 C41.2303495,195.996436 40.4613592,198.907116 41.3086467,203.012415 C42.1559341,207.117715 41.3086467,213.454995 41.3086467,213.454995 L32.5841025,213.454995 L32.6232511,209.040694 L31.2111053,205.294057 C31.2111053,205.294057 30.2407794,189.83021 29.4745854,186.483619 C29.0140619,184.498559 29.3002661,182.416026 30.279928,180.623635 C30.279928,180.623635 28.6664466,178.071617 28.7475401,176.278308 C28.8286336,174.484998 27.5143593,171.058398 27.5143593,171.058398 L25.6352267,158.463846 C25.6881458,156.040568 25.3752586,153.62301 24.7068458,151.290608 C23.6134814,147.703989 22,143 22,143 L23.823206,143.160018 L33.0287187,143.968387 C33.0287187,143.968387 55.3993448,142.484079 56.4088193,143.717324 C56.6213216,144.119849 56.7649373,144.554257 56.8338612,145.002989 C57.837743,149.458673 59.1659989,163.407863 59.1659989,163.407863 C59.1659989,163.407863 61.8728447,174.289114 60.7095721,175.365099 C59.5462996,176.441085 59.6917087,179.947695 59.6917087,179.947695 C61.4254322,183.236349 60.4159577,189.333602 60.4159577,189.333602 Z" id="Shape" fill="#444053"></path>
                <path d="M39.9876026,220.466544 C39.925531,221.460437 38.8460255,221.521514 38.8460255,221.521514 C35.688472,222.032342 35.0191786,223.298306 35.0191786,223.298306 C35.0191786,223.298306 31.977672,226.393809 27.4221589,225.95794 C23.5386379,225.57482 23.9137661,224.847446 24.1134746,223.542614 C24.153236,223.29668 24.1739914,223.047891 24.1755462,222.798583 C24.1755462,220.994029 25.524928,220.480425 27.6272649,219.128398 C29.7296018,217.776371 29.6729278,216.629785 30.550026,215.638669 C31.4271242,214.647552 31.5161834,212.72362 31.5161834,212.72362 C32.5093284,210.946829 35.0245762,213.001244 35.0245762,213.001244 C35.140623,213.63145 38.8838082,213.556491 38.8838082,213.556491 C38.8838082,213.556491 39.3803807,215.602578 39.6340645,215.721956 C39.8013879,215.802467 39.9282298,217.407131 39.9795063,218.775816 C40.0037951,219.469875 40.0064939,220.127843 39.9876026,220.466544 Z" id="Shape" fill="#B07473"></path>
                <path d="M39.9880208,219.664914 C39.9259476,220.623177 38.8464139,220.682064 38.8464139,220.682064 C35.6887778,221.174579 35.0194669,222.395159 35.0194669,222.395159 C35.0194669,222.395159 31.9778806,225.379692 27.4222484,224.959448 C23.5386259,224.590062 23.9137638,223.888764 24.1134776,222.63071 C25.848828,223.058983 29.1683942,223.653213 31.1061572,222.609296 C33.8049914,221.158519 35.7292603,220.144045 35.7292603,220.144045 L39.9745266,218 C40.0042138,218.703975 40.0069126,219.338355 39.9880208,219.664914 Z" id="Shape" fill="#000000" opacity="0.1"></path>
                <path d="M64.7118434,224.857486 C64.4979743,225.258078 64.1387583,225.559823 63.7092999,225.699634 C63.6840319,225.708818 63.6579071,225.715402 63.6313243,225.719284 C62.3029541,226 57.1732731,226 57.1732731,226 C57.1732731,226 51.9739711,221.940848 50.414459,221.848212 C48.8549468,221.755576 48,220.388489 48,220.388489 C48,220.388489 48.0306333,219.445284 48.1308876,218.350492 C48.2534207,217.056392 48.4678536,215.543333 48.8438075,215.155945 C49.5400182,214.426084 49.6792604,213.423928 51.2582664,214.061153 C51.2582664,214.061153 53.4861409,210.100252 56.1150328,213.160055 L58.8330396,217.317458 C58.8330396,217.317458 59.3454508,219.049475 62.7875168,220.905007 C64.1660141,221.648904 64.7870342,222.524737 64.9513399,223.324778 C65.0643481,223.847897 64.9789045,224.394711 64.7118434,224.857486 Z" id="Shape" fill="#B07473"></path>
                <path d="M64.7109726,224.954495 C64.4046559,225.193394 64.062138,225.450275 63.7084814,225.725138 C63.6832148,225.733542 63.6570912,225.739566 63.6305098,225.743119 C62.3022089,226 57.1727952,226 57.1727952,226 C57.1727952,226 51.973764,222.285505 50.4143332,222.200734 C48.8549023,222.115963 48,220.864954 48,220.864954 C48,220.864954 48.0306317,220.001835 48.1308808,219 C49.7265128,219.441835 52.1492,220.220183 52.7980346,221.055046 C53.7921718,222.33945 56.8135691,224.114495 56.8135691,224.114495 C56.8135691,224.114495 62.4470132,223.616147 64.9504567,223.546789 C65.0649083,224.027123 64.9794261,224.529594 64.7109726,224.954495 Z" id="Shape" fill="#000000" opacity="0.1"></path>
                <path d="M43,86.2826646 L35.5905073,94 C35.5905073,94 26.6162943,93.3479852 28.1837939,90.7344467 C28.98144,89.405761 29.1065064,86.6251094 29.0370251,84.1978609 C28.970323,81.8610178 28.7257486,79.8720985 28.7257486,79.8720985 C28.7257486,79.8720985 41.3129925,73.6971344 40.3485911,79.4556857 C40.1439015,80.5412164 40.1316771,81.6535085 40.3124608,82.7431555 C40.859974,85.6525663 43,86.2826646 43,86.2826646 Z" id="Shape" fill="#EFB7B9"></path>
                <path d="M40.9458187,79.3241982 C40.7354412,80.3516052 40.7228771,81.4043406 40.9086844,82.4356435 C39.1216384,84.0791328 36.6827744,85.0029468 34.1388159,85 C32.3792213,85 30.4967979,83.7035574 29.0828381,82.9386605 C29.0142824,80.7269415 29,79.7183146 29,79.7183146 C29,79.7183146 41.9370189,73.8739833 40.9458187,79.3241982 Z" id="Shape" fill="#000000" opacity="0.1"></path>
                <path d="M43,76.4963358 C43.0014902,80.9289431 39.9371959,84.7734045 35.6158255,85.7605151 C31.2944551,86.7476256 26.8647913,84.6149742 24.9414567,80.6213648 C23.0181221,76.6277553 24.1124112,71.8348395 27.5784167,69.0716503 C31.0444221,66.3084611 35.9607493,66.3095581 39.4255212,69.0742939 C41.6835762,70.8761227 42.9990279,73.6075249 43,76.4963358 Z" id="Shape" fill="#EFB7B9"></path>
                <path d="M56,144.713455 C53.7061481,149.78713 38.9493099,149.892297 38.9493099,149.892297 L38.9493099,144.362043 L38.0549561,144.308177 C38.4414053,145.890815 37.5028858,149.753784 37.5028858,149.753784 C25.8404015,151.292816 23,145.113604 23,145.113604 L23.4030113,143 L32.4900878,143.75156 C32.4900878,143.75156 54.5728984,142.371562 55.5693852,143.518141 C55.7829877,143.891742 55.9284966,144.29565 56,144.713455 L56,144.713455 Z" id="Shape" fill="#000000" opacity="0.1"></path>
                <path d="M38.8030122,149.886514 L38.8030122,143.902751 L37.9168619,143.847269 C38.2997664,145.558897 37.3698556,149.736712 37.3698556,149.736712 C28.6751904,150.979515 24.9254622,147.517421 23.604442,145.714247 C23.3681666,145.404351 23.1655153,145.069523 23,144.715566 L26.5254556,124.578277 L27.3459651,94.9424227 L28.6177548,89.743734 L28.9131382,87.2470319 L28.9131382,87.2192908 L28.9432235,87.2331613 L29.8403138,87.6243113 L35.2228559,89.9823078 L41.3684717,85.3023784 L41.4587278,85.2330255 L41.7623163,85 L42.2682971,85.4133429 L43.5236766,86.4342167 L47.555113,112.827132 C47.555113,112.827132 54.5458536,133.150287 55.8422586,141.353341 C55.8942242,141.680686 55.9379847,141.985839 55.970805,142.271572 C56.8213998,149.747808 38.8030122,149.886514 38.8030122,149.886514 Z" id="Shape" fill="#E1E7EF"></path>
                <circle id="Oval" fill="#67647E" cx="35.5" cy="91.5" r="1"></circle>
                <circle id="Oval" fill="#67647E" cx="36.5" cy="95.5" r="1"></circle>
                <circle id="Oval" fill="#67647E" cx="36.5" cy="103.5" r="1"></circle>
                <circle id="Oval" fill="#67647E" cx="37.5" cy="111.5" r="1"></circle>
                <circle id="Oval" fill="#67647E" cx="37.5" cy="119.5" r="1"></circle>
                <circle id="Oval" fill="#67647E" cx="38.5" cy="127.5" r="1"></circle>
                <circle id="Oval" fill="#67647E" cx="38.5" cy="135.5" r="1"></circle>
                <path d="M29.1822918,128.465147 C29.1822918,128.465147 28.608705,136.196113 27.5589329,138.443099 C26.5091608,140.690085 26.0329756,147 26.0329756,147 L23.5979372,146.721908 C23.3642045,146.41125 23.1637341,146.0756 23,145.720775 L26.4875161,125.534054 L27.2991955,95.8254515 L28.5572987,90.6140015 L28.8495033,88.1111706 C28.8590055,88.1037847 28.8701771,88.0990003 28.8819704,88.097266 C29.1587705,87.9628558 29.4805667,87.9679918 29.7531731,88.1111706 L29.8722194,88.1723509 C29.8370466,88.2752451 29.8018738,88.3809202 29.7694066,88.4893762 C28.8170361,91.5622963 28.4598971,97.2298178 28.4598971,97.2298178 C28.4598971,97.2298178 29.8289298,107.594318 29.9831489,112.416439 C30.137368,117.23856 29.1822918,128.465147 29.1822918,128.465147 Z" id="Shape" fill="#000000" opacity="0.1"></path>
                <path d="M23,143.811189 C22.9755904,143.875585 22.9476553,143.938179 22.9163592,143.998601 C22.0528905,145.657343 19.8634686,146.711888 19.196802,147 L19,146.597203 L19.4624846,144.132867 L21.9077491,143 C22.2940042,143.229679 22.6597945,143.501343 23,143.811189 L23,143.811189 Z" id="Shape" fill="#000000" opacity="0.1"></path>
                <path d="M15.8745249,105 L13.5327122,106.366528 L11.3929271,115.59751 C11.3929271,115.59751 8.72104116,123.431535 10.778308,129.024896 C12.8355748,134.618257 14.033513,137.807746 14.033513,137.807746 C14.033513,137.807746 14.8558506,144.170124 16.0879343,144.681881 C17.320018,145.193638 17.8578098,145.481328 17.8578098,145.481328 L18.1025192,147 C18.1025192,147 21.4487789,145.893499 22.6324899,143.957123 C23.8162008,142.020747 21.7617794,137.17704 21.7617794,137.17704 C21.7617794,137.17704 19.9947494,133.060858 20.4471774,131.143845 C20.8996054,129.226833 19.5423215,124.189488 19.5423215,124.070539 C19.5423215,123.951591 19.4199667,121.271093 20.3959591,119.213001 C21.3719516,117.15491 20.7260324,116.278008 20.7260324,116.278008 L20.1085678,110.40249 L15.8745249,105 Z" id="Shape" fill="#F96060"></path>
                <path d="M56,142.900195 C56,142.900195 49.8953163,145.178598 47.9527897,143.1767 C46.0102631,141.174803 46.2145923,131.839986 46.2145923,131.839986 C46.2145923,131.839986 44.3560366,114.583295 43.1804441,111.749116 C42.0048517,108.914937 42.6206382,88.4590804 42.6206382,88.4590804 C42.6206382,88.4590804 41.8257138,85.8184555 41.1455495,85.1188972 C41.1027672,85.0728741 41.0537938,85.0328685 41,85 L41.2379175,85.0497709 L42.0776264,85.2294993 L43.362381,86.2470386 L47.4881508,112.553746 C47.4881508,112.553746 54.6424706,132.810519 55.9692107,140.986779 L56,142.900195 Z" id="Shape" fill="#000000" opacity="0.1"></path>
                <path d="M62,143.666285 L61.9359912,143.666285 C61.234455,143.766664 55.0230432,144.606976 55,143.161524 C55.0001086,142.99382 55.0086567,142.826257 55.0256035,142.659631 L60.7787125,142 L61.9180688,143.313526 L61.9180688,143.313526 C61.9385516,143.399565 61.956474,143.474132 61.9718361,143.531491 L62,143.666285 Z" id="Shape" fill="#000000" opacity="0.1"></path>
                <path d="M56.1114977,96 L60.4020492,98.3016042 C60.4020492,98.3016042 63.9609206,107.818225 64.5446508,111.900734 C64.5446508,111.900734 67.1862318,122.832661 65.3516511,127.327852 C63.5170704,131.823043 63.6811605,140.749722 63.6811605,140.749722 C63.6811605,140.749722 62.6320601,142.389373 62.2043499,141.948993 C61.7766398,141.508614 62.36037,143.668965 62.36037,143.668965 C62.36037,143.668965 55.0354973,144.671589 55.0005272,143.18704 C54.9655572,141.702492 56.6817779,134.623189 56.6817779,134.623189 C56.6817779,134.623189 57.147148,117.777995 56.4854078,115.13849 C55.8236676,112.498985 56.1114977,96 56.1114977,96 Z" id="Shape" fill="#F96060"></path>
                <path d="M42.7211988,114 C42.7211988,114 40.1414123,119.734814 39.32448,120.113651 C38.5075476,120.492489 39.4907329,122 39.4907329,122 C39.4907329,122 44.1716121,116.037884 42.7211988,114 Z" id="Shape" fill="#000000" opacity="0.1"></path>
                <path d="M41.9998027,93.0036685 C42.0284066,92.8720587 38.9391778,96.3221163 38.1153834,96.8360214 C37.2915891,97.3499264 41.1188004,96.8078193 41.9998027,93.0036685 Z" id="Shape" fill="#000000" opacity="0.1"></path>
                <path d="M34,114 C34,114 29.4582102,116.757273 30.0538547,117.843629 C30.6494993,118.929984 34,114 34,114 Z" id="Shape" fill="#000000" opacity="0.1"></path>
                <path d="M42,156 C42,156 45.9073402,158.395741 52,159 L42,156 Z" id="Shape" fill="#000000" opacity="0.1"></path>
                <path d="M33,162 C33,162 36.2755206,165.89306 37.7696619,165.99802 C39.2638032,166.10298 33,162 33,162 Z" id="Shape" fill="#000000" opacity="0.1"></path>
                <path d="M37,180 C36.8521382,180.076421 35.1211351,183.881645 33.3544412,183.997594 C31.5877473,184.113543 37,180 37,180 Z" id="Shape" fill="#000000" opacity="0.1"></path>
                <path d="M54,189.125186 C54,189.125186 57.2731893,188.276214 58,191 C58,191 57.7814485,190.14808 54,189.125186 Z" id="Shape" fill="#000000" opacity="0.1"></path>
                <path d="M52,203.284314 C52,203.284314 56.0502894,202.479581 56.9122741,203.577865 C57.7742587,204.676149 52,203.284314 52,203.284314 Z" id="Shape" fill="#000000" opacity="0.1"></path>
                <path d="M40.3277658,205 C40.3277658,205.021605 35.8267138,205.490746 36.0051696,205.802478 C36.1836254,206.11421 40.8036479,206.069456 40.9679406,205.57871 C41.0318699,205.455526 40.999325,205.323419 40.8780386,205.213777 C40.7567523,205.104136 40.5575512,205.026748 40.3277658,205 L40.3277658,205 Z" id="Shape" fill="#000000" opacity="0.1"></path>
                <path d="M50,209.176712 C50,209.176712 57.4467562,208.563249 56.9788374,209.622341 C56.5109187,210.681432 50,209.176712 50,209.176712 Z" id="Shape" fill="#000000" opacity="0.1"></path>
                <path d="M13,120 C13.0384615,120.104496 17.4076923,120.665857 18,122 C18,122 13.7051282,120.104496 13.0384615,120.104496" id="Shape" fill="#000000" opacity="0.1"></path>
                <path d="M20,133 C20,133 15.7125267,134.325092 16.0153144,136.333434 C16.3181021,138.341775 15.582328,135.395813 20,133 Z" id="Shape" fill="#000000" opacity="0.1"></path>
                <path d="M17,141 C17,141 18.3998433,139.807955 19.7318647,140.026834 C21.0638861,140.245712 17,141 17,141 Z" id="Shape" fill="#000000" opacity="0.1"></path>
                <path d="M38.9889375,68.9698758 C38.8509075,69.0992583 38.6966634,69.2112344 38.5298447,69.3031618 C37.3931752,69.9428559 37.0889571,70.915836 36.5441301,72.0635226 C36.0463187,73.1036975 35.4959604,74.2137549 34.4865094,74.7943177 C33.1866684,75.5549624 31.4719845,75.2754322 30.1195967,75.9420042 C28.8936309,76.5663475 28.1786203,77.8498736 28.3108817,79.1888551 C28.3987795,79.6935819 28.5282582,80.1906301 28.6980684,80.6752032 C29.0031914,81.7237384 29.142145,82.8113352 29.1101456,83.9005518 C29.1142313,83.9335823 29.1142313,83.9669695 29.1101456,84 C25.9492388,82.4672854 23.9654442,79.3159306 24.000456,75.8830079 C24.0354677,72.4500852 26.0831465,69.3375651 29.2746931,67.866043 C32.4662397,66.3945208 36.2420093,66.8220312 39,68.967188 L38.9889375,68.9698758 Z" id="Shape" fill="#000000" opacity="0.1"></path>
                <path d="M38.685185,66.6307114 C37.7047753,64.4869533 35.5756565,63.1328544 33.3850951,62.4599757 C31.7127885,61.9567069 29.8988969,61.7926579 28.2399474,62.3459756 C27.294266,62.660171 26.4313985,63.1801227 25.5471597,63.6583671 C23.8935531,64.5286606 22.0743186,65.2154418 20.83211,66.6446139 C20.543597,66.9754923 20.2764554,67.4036878 20.3619407,67.8430053 C20.4260547,68.1711032 20.671825,68.4213473 20.8294386,68.7132988 C21.1847369,69.3639336 21.0965802,70.1841783 20.8534813,70.8932034 C20.6103824,71.6022285 20.2550841,72.2639852 20.0841134,72.9924737 C19.9131428,73.7209623 19.9799282,74.5745729 20.498183,75.0945246 C20.7485715,75.3010018 21.0089284,75.494034 21.2782365,75.6728666 C21.5613589,75.9291243 21.8102319,76.2236942 22.0182188,76.5487211 L23.4901692,78.6424305 C24.1824566,79.5716326 24.7990225,80.5593548 25.3334464,81.5953114 C25.7021019,82.3543853 25.985272,83.1662885 26.4741412,83.8447282 C26.9630104,84.5231679 27.7297068,85.0681441 28.5418174,84.9930708 C28.6691579,84.9975284 28.7906613,84.937406 28.8677302,84.8318024 C28.8996576,84.7655319 28.9143919,84.6917278 28.9104728,84.6177046 C28.9437065,83.490808 28.8094421,82.365333 28.5124318,81.281116 C28.3484057,80.7798303 28.2233373,80.2656392 28.1384335,79.7435047 C28.0114245,78.3585007 28.7018687,77.0311135 29.8855398,76.3846722 C31.1945338,75.697891 32.8508119,75.987062 34.1063775,75.2001832 C35.0814445,74.5856948 35.6130563,73.4484742 36.0939112,72.3724244 C36.6281945,71.1962769 36.914036,70.1786173 38.0119881,69.5168606 C39.1099402,68.8551039 39.2274825,67.7568101 38.685185,66.6307114 Z" id="Shape" fill="#585268"></path>
                <path d="M36,216 C36,216 37.2722774,217.805279 36.9466946,218.827344 C36.6211118,219.849409 36,216 36,216 Z" id="Shape" fill="#000000" opacity="0.1"></path>
                <path d="M54,220 C54,220 54.2853007,218.043724 55.4340781,218.025776 C56.5828554,218.007829 56.6384006,217.920335 57.5145012,218.218712 C58.3906017,218.517089 59.2111569,218.983723 58.951104,219.055513 C58.6910511,219.127303 57.4362328,217.933795 56.1738402,218.541766 C55.3718166,218.929316 54.6391764,219.420778 54,220 Z" id="Shape" fill="#000000" opacity="0.1"></path>
                <path d="M30.3884058,94 L34,91.1137015 C34,91.1137015 28.6967391,87.5462365 28.0652174,88.0484524 C27.4336957,88.5506684 27,93.0532941 27,93.0532941 L30.3884058,94 Z" id="Shape" fill="#000000" opacity="0.1"></path>
                <path d="M30.3731884,93 L34,90.0779247 C34,90.0779247 28.6967391,86.553742 28.0652174,87.047413 C27.4336957,87.5410839 27,92.2437989 27,92.2437989 L30.3731884,93 Z" id="Shape" fill="#E1E7EF"></path>
                <path d="M30.3731884,93 L34,90.0779247 C34,90.0779247 28.6967391,86.553742 28.0652174,87.047413 C27.4336957,87.5410839 27,92.2437989 27,92.2437989 L30.3731884,93 Z" id="Shape" fill="#000000" opacity="0.03"></path>
                <path d="M29.8613214,87.1732557 L29.7382945,87.1120822 C29.3665908,86.9277818 28.9180671,86.9735522 28.5938589,87.2288681 L16.325509,96.9026365 C16.325509,96.9026365 13.658974,100.486852 14.0366378,106.673726 L21.2694709,116.636679 C21.2694709,116.636679 22.0963257,113.261009 23.0891236,113.903332 C23.0891236,113.903332 24.4939183,131.176528 23.0891236,133.667961 C21.6843288,136.159395 21.0634725,145.477244 21.0634725,145.477244 L25.8157414,146 C25.8157414,146 26.3107098,139.693559 27.4265346,137.44404 C28.5423593,135.19452 29.143188,127.464404 29.143188,127.464404 C29.143188,127.464404 30.1474303,116.233489 29.9814871,111.409118 C29.8155439,106.584747 28.370694,96.2269464 28.370694,96.2269464 C28.370694,96.2269464 28.7741075,90.1540777 29.8613214,87.1732557 Z" id="Shape" fill="#F96060"></path>
                <path d="M40.8871031,91 L36,89.1854426 C36,89.1854426 42.2261858,82.3561086 43,86.1446844 L40.8871031,91 Z" id="Shape" fill="#000000" opacity="0.1"></path>
                <path d="M40.8871031,91 L36,89.1880916 C36,89.1880916 42.2261858,82.3556295 43,86.1444153 L40.8871031,91 Z" id="Shape" fill="#E1E7EF"></path>
                <path d="M40.8871031,91 L36,89.1880916 C36,89.1880916 42.2261858,82.3556295 43,86.1444153 L40.8871031,91 Z" id="Shape" fill="#000000" opacity="0.03"></path>
                <path d="M41,85.0080065 C41.1267855,84.985043 41.2575417,85.0119108 41.365,85.0830065 L41,85.0080065 Z" id="Shape" fill="#000000" opacity="0.1"></path>
                <path d="M42,85.0049609 L55.1366759,87.8230224 C55.1366759,87.8230224 58.7487061,88.6214731 61.3577033,97.6392698 C63.9667005,106.657067 57.7845719,117.711051 57.7845719,117.711051 L56.4203359,116.558961 L57.1038431,142.90231 C57.1038431,142.90231 51.0411894,145.176099 49.1156995,143.178591 C47.1902095,141.181082 47.3874819,131.851089 47.3874819,131.851089 C47.3874819,131.851089 45.5425681,114.602895 44.3756045,111.762731 C43.2086409,108.922567 43.8199075,88.4916213 43.8199075,88.4916213 C43.8199075,88.4916213 42.73352,84.847481 42,85.0049609 Z" id="Shape" fill="#F96060"></path>
                <path d="M53.1820064,102.120415 C52.98615,102.289906 52.7610613,110.176688 53.6058747,116.179937 C54.1242901,119.835828 54.9244138,123.451925 56,127 L54.7459344,102.943265 C54.7459344,102.943265 53.7724988,101.598275 53.1820064,102.120415 Z" id="Shape" fill="#000000" opacity="0.1"></path>
                <path d="M52,95 C52.2576996,95.1963768 53.3818032,98.4665965 52.866404,99.8085049 C52.3510047,101.150413 52,95 52,95 Z" id="Shape" fill="#000000" opacity="0.1"></path>
                <path d="M39.663991,66.1103257 C38.999511,64.8035036 37.9622064,63.7214222 36.6823716,63 C37.6325774,63.6750326 38.4005249,64.5736101 38.9178687,65.6157611 C39.491809,66.7735569 39.3311057,67.9342116 38.1918343,68.5917253 C37.052563,69.249239 36.6967201,70.3069784 36.1342586,71.5276669 C35.6177124,72.6340052 35.0437722,73.8146711 33.9963313,74.4321623 C32.6475718,75.2440488 30.8712268,74.9467382 29.4650733,75.649992 C28.1930833,76.3156162 27.4514391,77.681408 27.5882887,79.1062271 C27.6781322,79.6433438 27.8125116,80.1721179 27.9900469,80.6871188 C28.3085412,81.8019228 28.4518108,82.9591381 28.4147626,84.1176251 C28.4197293,84.1934712 28.4048997,84.2693064 28.3717171,84.3377492 C28.2889278,84.4463254 28.1584059,84.5081401 28.0216136,84.5035571 C27.6703586,84.5310045 27.318035,84.4659352 27,84.3148792 C27.4687393,84.7768218 28.108906,85.0242508 28.7677359,84.9981217 C28.9045281,85.0027048 29.0350501,84.94089 29.1178394,84.8323139 C29.1508398,84.763735 29.166598,84.6881883 29.1637546,84.6121898 C29.1980391,83.4536394 29.0538357,82.2966998 28.7361692,81.1816834 C28.5586339,80.6666826 28.4242545,80.1379085 28.334411,79.6007918 C28.1979748,78.1768029 28.9396669,76.8120527 30.2111955,76.1474154 C31.6173491,75.4413029 33.3936941,75.7386134 34.7424536,74.9295857 C35.7898945,74.2978008 36.3638347,73.1285699 36.8803809,72.0222316 C37.4543212,70.8129781 37.7585095,69.7666737 38.9379566,69.0862899 C40.1174038,68.4059062 40.2436706,67.2681216 39.663991,66.1103257 Z" id="Shape" fill="#000000" opacity="0.1"></path>
                <ellipse id="Oval" fill="#6C63FF" opacity="0.1" cx="266" cy="210.5" rx="11" ry="1.5"></ellipse>
                <ellipse id="Oval" fill="#6C63FF" opacity="0.1" cx="178" cy="225" rx="8" ry="1"></ellipse>
                <ellipse id="Oval" fill="#6C63FF" opacity="0.1" cx="106" cy="216" rx="8" ry="1"></ellipse>
                <path d="M109.941799,214.242932 C110.432637,213.81979 110.789857,213.248289 110.965786,212.604699 C111.099465,211.956762 110.837453,211.175843 110.249262,210.938172 C109.591558,210.672206 108.888403,211.156037 108.356358,211.642697 C107.824312,212.129356 107.212059,212.686752 106.516925,212.582063 C107.245555,211.881568 107.574247,210.82836 107.383169,209.806404 C107.351612,209.598592 107.268587,209.403338 107.142546,209.240521 C106.776263,208.827426 106.113212,209.005679 105.677416,209.331062 C104.287147,210.3638 103.899476,212.364198 103.891455,214.160878 C103.752428,213.512942 103.870066,212.836711 103.864719,212.180286 C103.859372,211.523861 103.690936,210.765577 103.15889,210.420388 C102.831894,210.228808 102.463169,210.131254 102.089453,210.137446 C101.466505,210.111982 100.768697,210.179888 100.343596,210.663718 C99.8088768,211.263555 99.9505773,212.270827 100.410435,212.927252 C100.870294,213.583677 101.573449,214.00526 102.220459,214.460797 C102.73804,214.787389 103.179423,215.23322 103.511805,215.765158 C103.55186,215.839503 103.584134,215.918249 103.608054,216 L107.527543,216 C108.402575,215.530583 109.214494,214.939677 109.941799,214.242932 L109.941799,214.242932 Z" id="Shape" fill="#6C63FF"></path>
                <path d="M270.931341,208.242932 C271.425136,207.820539 271.785912,207.249187 271.965793,206.604699 C272.099443,205.956762 271.837489,205.18999 271.249428,204.938172 C270.59187,204.672206 269.88887,205.156037 269.356942,205.642697 C268.825015,206.129356 268.212897,206.686752 267.515243,206.582063 C268.246022,205.883158 268.575081,204.828539 268.381296,203.806404 C268.352479,203.597736 268.269157,203.40174 268.140726,203.240521 C267.777197,202.827426 267.114293,203.005679 266.678593,203.331062 C265.288631,204.3638 264.901046,206.364198 264.893027,208.160878 C264.751358,207.512942 264.871643,206.836711 264.866297,206.180286 C264.860951,205.523861 264.689879,204.765577 264.160624,204.420388 C263.833701,204.228808 263.465056,204.131254 263.091423,204.137446 C262.46594,204.111982 261.770959,204.179888 261.343279,204.663718 C260.808678,205.263555 260.950347,206.270827 261.412777,206.927252 C261.875206,207.583677 262.575533,208.00526 263.2224,208.460797 C263.739867,208.787389 264.181152,209.23322 264.513461,209.765158 C264.552407,209.84008 264.584625,209.918705 264.609689,210 L268.525638,210 C269.397958,209.530459 270.207031,208.939531 270.931341,208.242932 L270.931341,208.242932 Z" id="Shape" fill="#6C63FF"></path>
                <path d="M179.940384,221.228139 C180.431014,220.805502 180.788896,220.235977 180.966923,219.594528 C181.097914,218.945598 180.835933,218.183811 180.250485,217.932703 C179.592858,217.667488 178.889786,218.147132 178.357803,218.63524 C177.825821,219.123349 177.21364,219.673528 176.515914,219.571957 C177.245841,218.874386 177.574758,217.823309 177.382057,216.804129 C177.351767,216.596505 177.268608,216.401465 177.141462,216.239842 C176.775222,215.827913 176.114923,216.005663 175.676505,216.330128 C174.2864,217.362773 173.898775,219.354706 173.890755,221.149139 C173.751744,220.50303 173.869369,219.828707 173.866695,219.174134 C173.864022,218.519562 173.690259,217.763417 173.16095,217.419202 C172.833674,217.229018 172.46521,217.131797 172.091638,217.137059 C171.466091,217.114487 170.771039,217.17938 170.343314,217.661845 C169.808659,218.262811 169.950342,219.267242 170.412819,219.918993 C170.875297,220.570745 171.575696,220.991138 172.219956,221.448211 C172.744358,221.777831 173.190545,222.229447 173.524516,222.768642 C173.562986,222.842621 173.59519,222.920041 173.620754,223 L177.534434,223 C178.408481,222.526639 179.21781,221.93061 179.940384,221.228139 L179.940384,221.228139 Z" id="Shape" fill="#6C63FF"></path>
                <path d="M260.980768,94.6547088 C257.376178,94.5831725 254.194688,92.0243712 252.392393,88.9207929 C251.920315,88.1795149 251.623384,87.3401222 251.524215,86.4665449 C251.536828,86.2673887 251.569973,86.0700727 251.623121,85.8777455 C251.738829,85.5867128 251.830712,85.2867388 251.897861,84.9807893 C251.912977,84.8583596 251.912977,84.7345315 251.897861,84.6121018 C251.897861,84.6121018 251.897861,84.6121018 251.897861,84.5955934 C251.985778,83.9297548 251.595647,83.2886788 251.10661,82.8291952 C250.617573,82.3697115 250.021387,82.0367922 249.518612,81.5938169 C247.969078,80.2318743 247.499273,78.0472634 247.469051,75.9672056 C247.469051,75.9314374 247.469051,75.8956692 247.469051,75.8571496 C247.485536,74.9684477 247.556968,74.074243 247.548726,73.1827896 C247.561111,72.6765365 247.539081,72.1700261 247.482788,71.6667687 C247.334429,70.4066279 246.856381,69.1244758 245.867317,68.3210673 C243.287507,66.2272525 238.949362,68.4063607 236.281636,66.4253533 C235.630502,65.9438584 235.105748,65.2257432 234.319991,65.0496537 C233.723805,64.9065809 233.10564,65.0991788 232.525939,65.2917768 C230.5588,65.941107 228.366374,66.7967921 227.597102,68.711766 C227.157518,69.8123256 227.281151,71.0477039 226.877283,72.1537663 C226.602543,72.8938927 226.116253,73.5294659 225.753596,74.2338241 C225.454536,74.7619481 225.308934,75.3633111 225.333244,75.969957 C225.302774,76.284002 225.347025,76.6008086 225.462371,76.8944271 C225.598236,77.2451161 225.816944,77.557606 226.099768,77.8051403 C225.996357,78.0233869 225.867226,78.2284497 225.715132,78.4159509 C225.212358,79.0322643 224.440338,79.4724882 223.918332,80.0667904 C222.951247,81.1893612 222.986963,82.7163878 223.465011,84.0370594 C223.943059,85.357731 224.800248,86.5600924 225.388192,87.8449959 C225.6437,88.3952757 225.849755,89.0280975 225.583257,89.5838801 C225.399181,89.969076 225.014545,90.2607243 224.715078,90.5936436 C224.276447,91.0865043 224.001833,91.7038436 223.929322,92.3600419 C218.041642,93.7054761 218.038895,98.4406341 218.038895,98.4406341 L218.038895,98.4406341 L214.862899,106.458211 C214.862899,106.458211 214.35463,107.806397 213.763939,109.586552 L210,108.912459 L212.599041,113.29819 C212.101762,115.083848 211.752842,116.74019 211.868233,117.571113 C211.868233,117.571113 210.700587,123.073911 212.777622,124.034149 L217.365781,126.10045 C217.563761,126.220819 217.777304,126.313396 218.000431,126.37559 L218.187254,126.458132 C218.322415,126.524581 218.480688,126.524581 218.615849,126.458132 L218.640575,126.458132 L218.690029,126.458132 C218.78337,126.46764 218.877623,126.454425 218.964769,126.419612 C219.067815,126.365604 219.148556,126.276951 219.192803,126.169235 C219.193837,126.161013 219.193837,126.152694 219.192803,126.144472 L220.566503,125.74552 L221.731401,127.121219 C222.256155,127.489907 222.769919,127.81182 223.272693,128.100717 L221.481388,146.03984 C221.481388,146.03984 221.190163,169.883465 220.313742,175.311976 C219.986802,177.323249 219.984054,178.693445 220.107687,179.62617 L220.074719,179.6867 C220.291763,181.21923 220.85498,181.521884 220.85498,181.521884 L220.85498,181.499873 L220.887949,181.521884 C221.153329,180.826071 221.468259,180.15024 221.830308,179.499605 C221.830308,179.62617 221.830308,179.755485 221.830308,179.890304 C221.813823,181.915334 221.750633,184.746524 221.555568,186.58721 C221.198405,189.718302 222.464957,200.091077 222.464957,200.091077 L222.901794,209.528376 C222.972678,211.12946 222.601967,212.719177 221.830308,214.123213 C220.794538,216.007921 219.445564,218.657518 219.357647,219.832366 C219.353615,219.896502 219.353615,219.960828 219.357647,220.024964 L219.357647,220.024964 L217.06082,222.702075 C217.06082,222.702075 216.181652,224.058515 218.15978,224.606043 C219.223024,224.903195 221.061035,224.606043 222.533642,224.256616 C223.859617,223.951865 224.800386,222.771341 224.802995,221.408918 C225.182404,220.108975 225.819682,218.899005 226.676723,217.851358 L227.047622,220.022212 L229.520282,220.635774 L229.836233,214.684498 C229.964651,214.349631 230.022642,213.991816 230.006572,213.633464 L230.006572,213.633464 C230.492862,209.401812 228.860906,209.781505 228.860906,209.781505 C228.902339,209.821457 228.930207,209.873424 228.940581,209.93008 C228.913107,209.883306 228.885633,209.833781 228.860906,209.784256 L228.860906,209.784256 C227.858105,207.803249 228.34989,204.556598 228.34989,204.556598 C228.34989,204.556598 229.64941,195.124801 230.105479,192.634785 C230.426925,190.876641 230.295049,185.115211 230.187901,181.88782 C230.187901,181.753001 230.187901,181.61268 230.174164,181.499873 C234.001293,181.450347 238.691106,181.31828 241.987987,180.999118 L241.987987,181.389817 L241.378064,203.67615 C241.337102,205.096197 241.049839,206.49829 240.529117,207.819757 C240.529117,207.84452 240.507138,207.869282 240.498896,207.894045 C239.769426,209.755892 239.353499,211.726053 239.26806,213.72426 L238.99332,220.806361 L238.99332,221.001711 L238.99332,221.001711 C238.501535,221.191557 237.726768,221.739086 237.704789,223.326643 C237.67182,225.651575 241.7627,224.875681 241.7627,224.875681 C245.85358,224.875681 245.883801,220.611012 245.883801,220.611012 C245.883801,220.611012 246.015676,216.701274 246.207994,214.084693 C246.400312,211.468112 245.592577,212.045906 245.592577,212.045906 L245.532134,219.474684 C245.532134,219.493944 245.532134,219.513204 245.532134,219.532463 L245.532134,213.008896 L245.595324,212.062415 L245.595324,212.034901 L245.595324,212.034901 L245.609061,211.834048 L246.11733,204.157645 C246.11733,204.157645 249.884017,191.363639 250.469213,188.909391 C250.88407,187.167755 250.710984,181.912582 250.573614,179.004353 C250.573614,178.869535 250.573614,178.742971 250.55713,178.619158 C251.722028,178.514604 252.75505,178.503599 253.169908,178.503599 L253.359479,178.503599 C253.359479,178.503599 253.164413,157.95615 252.678123,150.202707 C252.191833,142.449264 251.411571,135.372665 249.460917,133.240331 C248.285029,131.952676 246.644831,127.974153 245.529386,125.027404 C247.855667,126.036354 250.269853,126.828439 252.741313,127.393608 C258.911975,128.686765 258.068523,123.321537 258.068523,123.321537 L257.442116,113.177128 L257.483327,113.177128 C257.460836,110.519392 257.233038,107.867383 256.801972,105.244844 C256.477778,103.233571 255.977751,101.153514 255.213974,99.466906 C255.88434,99.2110259 256.543716,98.9166262 257.192103,98.6414862 C258.868017,97.9013599 260.763724,96.8503254 261,95.0399047 L260.917578,95.0399047 C260.948554,94.9133352 260.969681,94.7845504 260.980768,94.6547088 Z M222.731455,109.330672 L222.731455,109.330672 C222.747939,110.378955 222.706728,112.194879 222.646286,114.206151 L220.687389,111.586819 L222.65178,108.395196 L222.731455,109.330672 Z M249.809837,118.605639 L246.545925,117.554604 C247.125332,116.650833 247.801536,115.813113 248.562517,115.056334 L248.837257,114.781194 L248.735603,114.803205 L248.894952,114.660132 L248.988364,114.638121 L248.837257,114.781194 L249.015838,114.745426 C249.212973,115.566586 249.593403,116.332317 250.128535,116.985065 C251.293433,118.283725 249.798847,118.605639 249.798847,118.605639 L249.809837,118.605639 Z" id="Shape" fill="url(#linearGradient-5)"></path>
                <polygon id="Shape" fill="#A27772" points="231 214 230.538335 221 227.616653 220.41268 227 217.5"></polygon>
                <polygon id="Shape" fill="#000000" opacity="0.1" points="231 214 230.538335 221 227.616653 220.41268 227 217.5"></polygon>
                <path d="M239,221.229869 L242.847726,222 L245.693677,219.563085 L245.693677,212.700667 L245.756288,211.762757 L245.756288,211.735253 L245.756288,211.735253 L245.770517,211.537219 L246.28848,203.918422 C246.28848,203.918422 250.136206,191.219511 250.733856,188.790847 C251.157902,187.060803 250.981454,181.843165 250.842002,178.960674 C250.785083,177.777973 250.733856,176.988588 250.733856,176.988588 L242.241538,175 L242.062243,181.326077 L241.441826,203.439841 C241.399487,204.848817 241.104842,206.240048 240.570965,207.551791 L240.542505,207.626053 C239.802988,209.478654 239.386571,211.436979 239.310209,213.42129 L239.025614,220.448736 L239.025614,220.644019 L239,221.229869 Z" id="Shape" fill="#CC818C"></path>
                <polygon id="Shape" fill="#000000" opacity="0.1" points="246 212.005 246 212.36 246 212.36 246.025 212"></polygon>
                <path d="M239,222.234973 L243.02381,223 L246,220.579235 L246,220 C245.981463,220.261638 245.820256,220.496987 245.571429,220.625683 L245.529762,220.647541 C244.143818,221.321233 242.57281,221.60626 241.011905,221.467213 L239.440476,221.344262 C239.298779,221.358649 239.159718,221.389876 239.026786,221.437158 L239.026786,221.631148 L239,222.234973 Z" id="Shape" fill="#000000" opacity="0.1"></path>
                <path d="M244.920153,220.199818 L244.956684,220.177665 C245.19105,220.038753 245.335919,219.775813 245.33504,219.490941 L245.392446,212.053272 C245.392446,212.053272 246.154375,211.480079 245.971721,214.094062 C245.789067,216.708046 245.666427,220.615175 245.666427,220.615175 C245.666427,220.615175 245.637724,224.876743 241.804591,224.876743 C241.804591,224.876743 237.971458,225.649308 238.00016,223.326075 C238.028863,221.002842 239.584035,220.905925 239.584035,220.905925 L240.959162,221.033302 C242.327845,221.171571 243.704743,220.88184 244.920153,220.199818 Z" id="Shape" fill="#B07473"></path>
                <path d="M220.004167,220.024555 C220.102008,221.682447 225.086336,220.724918 225.086336,220.724918 L228.440904,214.347779 C228.440904,214.347779 231.236376,212.241217 229.83864,210.391819 C229.762626,210.291556 229.693518,210.186452 229.631775,210.077202 L229.631775,210.060788 L229.631775,210.060788 C229.601025,210.011543 229.575865,209.962299 229.547911,209.910319 L229.547911,209.910319 C228.541541,207.956961 229.036339,204.753344 229.036339,204.753344 C229.036339,204.753344 230.33903,195.45164 230.797487,192.989424 C231.118966,191.252193 230.987579,185.564475 230.878556,182.380009 C230.836624,181.058619 230.797487,180.16675 230.797487,180.16675 L222.517297,178 C222.517297,178 222.517297,179.009509 222.517297,180.415707 C222.500524,182.412838 222.439024,185.208821 222.23775,187.025389 C221.879929,190.119574 223.151869,200.356921 223.151869,200.356921 L223.590758,209.67504 C223.653282,211.252352 223.27334,212.816312 222.492138,214.19731 C221.452222,216.057651 220.099213,218.675808 220.004167,219.835785 C219.998611,219.898591 219.998611,219.961749 220.004167,220.024555 L220.004167,220.024555 Z" id="Shape" fill="#CC818C"></path>
                <path d="M220,220.01766 C220.095681,221.68727 224.969929,220.722974 224.969929,220.722974 L228.25041,214.300761 C228.25041,214.300761 230.984144,212.17931 229.617277,210.31684 C229.542942,210.215869 229.47536,210.110022 229.414981,210 C229.371241,210.972562 228.321487,213.399833 228.321487,213.399833 C228.321487,213.399833 225.612356,218.86326 224.767633,220.11409 C223.922909,221.36492 220.16129,219.882659 220.02187,219.838577 C220.009735,219.897569 220.002421,219.957464 220,220.01766 Z" id="Shape" fill="#000000" opacity="0.1"></path>
                <path d="M228.782521,210.008638 C228.782521,210.008638 230.388339,209.630765 229.911526,213.873503 L229.911526,213.873503 C229.946976,214.855335 229.460647,215.781098 228.637285,216.299115 C227.489098,217.032634 225.713382,218.608031 224.817303,221.672694 L224.817303,221.672694 C224.818706,223.035257 223.894775,224.219496 222.586696,224.531749 C221.137075,224.873502 219.328475,225.176356 218.281679,224.879059 C216.333324,224.323363 217.185558,222.970244 217.185558,222.970244 L219.421645,220.280676 C219.421645,220.280676 223.318357,221.836624 224.181552,220.572416 C225.044748,219.308208 227.743946,213.801262 227.743946,213.801262 C227.743946,213.801262 229.270295,210.364284 228.782521,210.008638 Z" id="Shape" fill="#B07473"></path>
                <path d="M242.163371,176 L242,183 C244.074554,182.765652 245.537115,182.436957 245.791248,181.977391 C246.333225,180.988261 248.314425,180.568261 250,180.397826 C249.948136,179.08913 249.901459,178.215652 249.901459,178.215652 L242.163371,176 Z" id="Shape" fill="#000000" opacity="0.1"></path>
                <path d="M222,181.192533 C222.205113,180.807455 222.504566,180.472385 222.874332,180.214212 C223.716578,179.779678 223.625668,182.992745 223.625668,182.992745 C223.625668,182.992745 226.419786,183.017575 230,182.975364 C229.959893,181.773567 229.92246,180.966576 229.92246,180.966576 L222.002674,179 C222.002674,179 222.013369,179.916246 222,181.192533 Z" id="Shape" fill="#000000" opacity="0.1"></path>
                <path d="M220.862826,181.998527 C220.862826,181.998527 221.828569,179.413793 222.694978,178.938879 C223.561388,178.463965 223.470332,181.993068 223.470332,181.993068 C223.470332,181.993068 244.700127,182.184126 245.762445,180.560138 C246.824762,178.93615 253,179.034408 253,179.034408 C253,179.034408 252.806851,158.79597 252.32398,151.159132 C251.841108,143.522295 251.068514,136.554158 249.139786,134.455256 C247.889839,133.09056 246.104594,128.698969 245.017443,125.767603 C244.418682,124.16545 244.024107,123 244.024107,123 L223.760055,124.146344 L223.594499,125.767603 L221.442272,147.056857 C221.442272,147.056857 221.166345,170.529624 220.28338,175.88469 C219.400415,181.239756 220.862826,181.998527 220.862826,181.998527 Z" id="Shape" fill="#6074F9"></path>
                <g id="Group" opacity="0.1" transform="translate(220, 123)" fill="#000000">
                    <path d="M24.12575,58.318894 C25.18175,56.6764977 31.339,56.7732719 31.339,56.7732719 C31.339,56.7732719 31.1465,36.2709677 30.66525,28.5345622 C30.184,20.7981567 29.414,13.7391705 27.49175,11.6129032 C26.246,10.2304147 24.46675,5.78156682 23.38325,2.81198157 C22.88275,1.44884793 22.52525,0.398156682 22.4235,0.0967741935 L23.991,0.00829493088 C23.991,0.00829493088 24.38425,1.18894009 24.981,2.81198157 C26.081,5.78156682 27.84375,10.2359447 29.0895,11.6129032 C31.0145,13.7391705 31.78175,20.7981567 32.263,28.5345622 C32.74425,36.2709677 32.92575,56.759447 32.92575,56.759447 C32.92575,56.759447 26.77125,56.6599078 25.71525,58.318894 C24.8105,59.7235023 9.24,59.7870968 4.719,59.7760369 C10.516,59.7483871 23.30075,59.5741935 24.12575,58.318894 Z" id="Shape"></path>
                    <path d="M1.1275,56.6599078 C1.518,56.4414747 1.71325,57.0470046 1.8095,57.7658986 C1.46068579,58.4037317 1.15653147,59.0652439 0.89925,59.7456221 C0.89925,59.7456221 0.34925,59.4442396 0.12925,57.9152074 C0.4345,57.3705069 0.78925,56.8506912 1.1275,56.6599078 Z" id="Shape"></path>
                </g>
                <path d="M226.9226,72.9367322 C225.561679,74.8704059 226.938674,77.6148853 225.47863,79.4928335 C224.996414,80.1141725 224.254337,80.55719 223.750689,81.1645976 C222.818404,82.2958246 222.85591,83.828275 223.314015,85.1573274 C223.772121,86.4863798 224.599925,87.6928362 225.167869,88.9856671 C225.414335,89.5429218 225.612579,90.1754058 225.358076,90.7326605 C225.181264,91.1199525 224.822281,91.4125112 224.522235,91.7496503 C223.584592,92.8390832 223.557802,94.354816 224.06145,95.6365017 C224.565099,96.9181875 225.53221,98.0299106 226.472532,99.1109847 C226.847589,99.5400708 227.321768,100.010951 227.94597,100 C228.274823,99.9720313 228.592577,99.863145 228.872897,99.6821707 C231.095045,98.4653588 232.780844,96.4046885 233.579864,93.9285161 C234.255255,91.5990191 234.112834,89.0957155 233.178017,86.865313 C232.374323,84.8954177 231.066981,83.0063243 231.056265,80.9221918 C231.056265,79.2699317 231.873354,77.6929009 232.018019,76.0462133 C232.194832,74.0484553 231.056265,70.8721036 228.736269,70 C228.888971,71.2900446 227.624493,71.9559639 226.9226,72.9367322 Z" id="Shape" fill="#585268"></path>
                <path d="M226.9226,72.9367322 C225.561679,74.8704059 226.938674,77.6148853 225.47863,79.4928335 C224.996414,80.1141725 224.254337,80.55719 223.750689,81.1645976 C222.818404,82.2958246 222.85591,83.828275 223.314015,85.1573274 C223.772121,86.4863798 224.599925,87.6928362 225.167869,88.9856671 C225.414335,89.5429218 225.612579,90.1754058 225.358076,90.7326605 C225.181264,91.1199525 224.822281,91.4125112 224.522235,91.7496503 C223.584592,92.8390832 223.557802,94.354816 224.06145,95.6365017 C224.565099,96.9181875 225.53221,98.0299106 226.472532,99.1109847 C226.847589,99.5400708 227.321768,100.010951 227.94597,100 C228.274823,99.9720313 228.592577,99.863145 228.872897,99.6821707 C231.095045,98.4653588 232.780844,96.4046885 233.579864,93.9285161 C234.255255,91.5990191 234.112834,89.0957155 233.178017,86.865313 C232.374323,84.8954177 231.066981,83.0063243 231.056265,80.9221918 C231.056265,79.2699317 231.873354,77.6929009 232.018019,76.0462133 C232.194832,74.0484553 231.056265,70.8721036 228.736269,70 C228.888971,71.2900446 227.624493,71.9559639 226.9226,72.9367322 Z" id="Shape" fill="#000000" opacity="0.1"></path>
                <path d="M244,143 C241.08048,143.157895 238.333035,144.435673 235.777738,145.883041 C233.222441,147.330409 230.750314,148.982456 228,150" id="Shape" fill="#000000" opacity="0.1"></path>
                <path d="M241,149 C238.260366,149.267303 235.707088,150.529204 233.8077,152.554633 C233.135802,153.279391 232.556393,154.092669 231.854572,154.786999 C230.778696,155.8501 229.450909,156.612414 228,157" id="Shape" fill="#000000" opacity="0.1"></path>
                <path d="M242,154 C239.745197,154.619607 237.704371,155.837896 236.098247,157.523102 C235.664989,157.985149 235.265058,158.482948 234.837355,158.942244 C232.496094,161.417492 229.191113,162.751375 226,164" id="Shape" fill="#000000" opacity="0.1"></path>
                <path d="M242.093821,84.1373019 C242.156387,86.4187057 242.34898,88.6944543 242.670623,90.9529948 C242.92881,92.5629568 243.296865,93.9962156 243.824226,94.6329079 C245.359618,96.4981078 236.331296,99 236.331296,99 L231,94.7927822 C231,94.7927822 235.227133,90.8183638 233.257767,86.939309 C231.288401,83.0602542 242.093821,84.1373019 242.093821,84.1373019 Z" id="Shape" fill="#CC818C"></path>
                <path d="M224,126 L246,126 C245.385111,124.263314 244.979907,123 244.979907,123 L224.170015,124.242604 L224,126 Z" id="Shape" fill="#000000" opacity="0.1"></path>
                <path d="M222.181525,125 L245.090208,125 C244.447109,122.689363 245.090208,120.547729 246.009315,118.904794 C246.651595,117.750491 247.459775,116.697461 248.407827,115.779615 L248.565152,115.638318 L256.56939,113.856855 L257,113.762656 C257,113.762656 257.063445,99.1646377 251.915892,97.1615314 C246.768338,95.158425 243.677046,92.4515994 243.677046,92.4515994 L236.600195,94.6458736 L231.386399,92 C229.713789,93.809168 225.272817,93.1082193 225.272817,93.1082193 C218,93.9393838 218,99.438922 218,99.438922 C218,99.438922 222.247767,109.387961 222.570696,109.387961 C222.893626,109.387961 222.181525,125 222.181525,125 Z" id="Shape" fill="#67647E"></path>
                <path d="M230,116 C230,116 225.523138,114.908826 224,113" id="Shape" fill="#000000" opacity="0.1"></path>
                <path d="M254.188617,110 L249,114.048817 C249.037663,114.368814 249.095119,114.686425 249.172071,115 L249.322965,114.871666 L257,113.253649 L254.188617,110 Z" id="Shape" fill="#000000" opacity="0.1"></path>
                <path d="M240,123.42812 C240,123.42812 241.180855,124.108612 242.987838,125 L246.085524,125 C245.445665,122.654833 246.085524,120.481195 247,118.813708 L241.526873,117 C243.394272,118.771529 240,123.42812 240,123.42812 Z" id="Shape" fill="#000000" opacity="0.1"></path>
                <path d="M221.750886,97 L218.501771,98.7540283 L215.316747,106.815866 C215.316747,106.815866 212.003543,115.658511 212.326782,118.000933 C212.326782,118.000933 211.159219,123.525146 213.237983,124.501156 L218.660604,126.955122 C218.856453,127.044059 219.087162,126.998147 219.234109,126.840993 C219.381057,126.683839 219.411534,126.450424 219.30987,126.260761 C218.537996,124.796747 217.690886,122.510097 219.031215,121.241284 L217.470749,117.992567 L223.11908,108.767884 L225,105.59446 L221.750886,97 Z" id="Shape" fill="#67647E"></path>
                <path d="M229.031443,113.220674 C229.296486,114.372245 230.202933,116.141526 233.192619,116.809549 L236.484454,119.643753 L239.975071,121.320797 L241.395702,122 L242,117.404899 L240.629727,116.613893 L239.039469,115.694314 C239.039469,115.694314 235.437534,108.807253 229.731156,111.716925 C229.191182,111.981814 228.899721,112.608192 229.031443,113.220674 L229.031443,113.220674 Z" id="Shape" fill="#000000" opacity="0.1"></path>
                <path d="M229.0309,113.217083 C229.295954,114.368758 230.20244,116.1382 233.192251,116.806283 L236.484223,119.64354 L239.974986,121.320736 L241.395677,122 L242,117.404483 L240.62967,116.616201 L239.039345,115.693743 C239.039345,115.693743 235.437259,108.808853 229.730643,111.715993 C229.191804,111.980665 228.900554,112.605455 229.0309,113.217083 L229.0309,113.217083 Z" id="Shape" fill="#CC818C"></path>
                <circle id="Oval" fill="#000000" opacity="0.1" cx="235" cy="82" r="8"></circle>
                <circle id="Oval" fill="#CC818C" cx="235" cy="82" r="8"></circle>
                <path d="M240.550663,99 L238,94.4225199 C238,94.4225199 241.752308,93.0320907 242.024379,91.4177348 C242.29645,89.8033789 245.617979,93.3080935 244.898126,94.4693883 C244.178272,95.630683 240.550663,99 240.550663,99 Z" id="Shape" fill="#000000" opacity="0.1"></path>
                <path d="M240.550663,99 L238,94.4223991 C238,94.4223991 241.752308,93.0319333 242.024379,91.4175348 C242.29645,89.8031363 245.617979,93.3105472 244.898126,94.4692687 C244.178272,95.6279902 240.550663,99 240.550663,99 Z" id="Shape" fill="#67647E"></path>
                <path d="M221.061099,111.782493 L235,130.23638 C235,130.23638 229.864909,132.982902 222.778371,128.058387 L219.711813,124.474175 L211,110 L221.061099,111.782493 Z" id="Shape" fill="#F6F8FB"></path>
                <path d="M217.322562,121.673268 L218.52556,121.640887 C218.52556,121.640887 225.875744,114.355083 227.678919,118.04116 C229.482094,121.727237 223.10224,125.165057 223.10224,125.165057 L221.161579,126.244435 L218.618098,127 L217,124.781878 L217.322562,121.673268 Z" id="Shape" fill="#CC818C"></path>
                <path d="M219.863836,126.26057 C219.977945,126.729178 220.08662,127.246157 219.896439,127.681509 C219.852548,127.799024 219.772652,127.895428 219.670938,127.953603 C219.585119,127.993338 219.491575,128.007911 219.39925,127.995929 C218.744957,127.93369 218.13621,127.597691 217.695767,127.055691 C217.261063,126.517584 216.889504,125.920248 216.589998,125.278007 C216.253105,124.628003 215.902628,123.902417 216.024887,123.161716 C216.158014,122.351478 216.807348,121.78915 217.426796,121.347752 C218.679277,120.425654 218.709163,121.498916 218.994435,122.684038 L219.863836,126.26057 Z" id="Shape" fill="#000000" opacity="0.1"></path>
                <path d="M218.863836,126.26057 C218.977945,126.729178 219.08662,127.246157 218.896439,127.681509 C218.852548,127.799024 218.772652,127.895428 218.670938,127.953603 C218.585119,127.993338 218.491575,128.007911 218.39925,127.995929 C217.744957,127.93369 217.13621,127.597691 216.695767,127.055691 C216.261063,126.517584 215.889504,125.920248 215.589998,125.278007 C215.253105,124.628003 214.902628,123.902417 215.024887,123.161716 C215.158014,122.351478 215.807348,121.78915 216.426796,121.347752 C217.679277,120.425654 217.709163,121.498916 217.994435,122.684038 L218.863836,126.26057 Z" id="Shape" fill="#67647E"></path>
                <polygon id="Shape" fill="#000000" opacity="0.1" points="223 109.076712 224 108 223.124464 110"></polygon>
                <path d="M240,121.369159 L241.403141,122 L242,117.732087 L240.646597,117 C241.570681,118.053998 240.76178,120.011423 240,121.369159 Z" id="Shape" fill="#000000" opacity="0.1"></path>
                <path d="M247,115.97359 C247,115.97359 242.084381,116.252137 240,115" id="Shape" fill="#000000" opacity="0.1"></path>
                <g id="Group" opacity="0.1" transform="translate(226, 92)" fill="#000000">
                    <path d="M20.2639316,26.70525 C20.9020177,25.5598556 21.7037091,24.5147369 22.6434188,23.60325 C22.8688273,23.4607574 23.1026496,23.3321865 23.3435897,23.21825 L30.7282051,21.69475 L31.1548718,21.60125 C31.1548718,21.60125 31.2205128,7.1115 26.1169231,5.12325 C23.2569079,4.02652 20.5753849,2.50742359 18.1606838,0.616 L18.7213675,0.44275 C18.7213675,0.44275 21.7818803,3.135 26.882735,5.11775 C31.9835897,7.1005 31.926168,21.60125 31.926168,21.60125 L31.1603419,21.60125 L23.6006838,23.056 L23.1740171,23.46575 C22.2261588,24.4188351 21.4134952,25.4987499 20.7589744,26.675 C19.7611594,28.5402872 19.5341798,30.7256749 20.1271795,32.758 L19.3449573,32.758 C18.7158974,30.4645 19.3641026,28.33875 20.2639316,26.70525 Z" id="Shape"></path>
                    <path d="M0.109401709,1.1495 C0.232478632,1.1275 0.35008547,1.10183333 0.475897436,1.0835 C0.993531051,1.18153153 1.51498331,1.23907335 2.03760684,1.25583333 C1.39381416,1.27956259 0.749565665,1.24403469 0.109401709,1.1495 L0.109401709,1.1495 Z" id="Shape"></path>
                    <path d="M10.9347009,2.62075 L6.26324786,0.253 C6.36018171,0.176185252 6.4515788,0.0925590554 6.53675214,0.00275 L11.4105983,2.47775 L10.9347009,2.62075 Z" id="Shape"></path>
                </g>
                <path d="M255.062504,110 L258.301112,113.945749 L258.961301,124.65564 C258.961301,124.65564 259.811329,130.109229 253.543786,128.795858 C247.276243,127.482488 240,123.407092 240,123.407092 C240,123.407092 243.502117,118.739835 241.58672,116.967066 L250.57152,119.858736 C250.57152,119.858736 252.090237,119.528984 250.900198,118.215614 C249.710158,116.902243 249.500484,114.534793 249.500484,114.534793 L255.062504,110 Z" id="Shape" fill="#67647E"></path>
                <path d="M255,121 L256,123 C255.47561,122.7201 255.087871,121.944622 255,121 L255,121 Z" id="Shape" fill="#000000" opacity="0.1"></path>
                <polygon id="Shape" fill="#000000" opacity="0.1" points="252 120 255 123.659884 253.501532 124"></polygon>
                <path d="M226.137157,77.4952284 C225.841523,76.7669984 226.065986,75.9252421 226.410891,75.2247015 C226.755797,74.5241609 227.251257,73.8873058 227.50583,73.1452311 C227.902745,72.037657 227.779564,70.7971741 228.212065,69.7062136 C228.97031,67.7956483 231.124602,66.9372783 233.057168,66.2921164 C233.626536,66.1010599 234.234227,65.9072344 234.820019,66.0484501 C235.591951,66.2367377 236.109309,66.953892 236.736162,67.4329178 C239.35854,69.4099375 243.620588,67.2335544 246.155371,69.3268694 C247.127129,70.1270917 247.597952,71.4118777 247.743032,72.6689743 C247.888111,73.9260709 247.743032,75.20255 247.729345,76.4707223 C247.688285,78.6858705 248.096149,81.1169956 249.741294,82.5873003 C250.236754,83.0303299 250.819809,83.3653711 251.301582,83.8222454 C251.783355,84.2791197 252.163846,84.9298195 252.078988,85.5860571 C252.010879,85.8909272 251.919356,86.1899567 251.805254,86.4804232 C251.476772,87.6378381 251.96402,88.8644764 252.558024,89.908365 C254.331824,93.0095724 257.455136,95.5652997 261,95.637292 C260.761851,97.4454067 258.90593,98.4948331 257.258048,99.2369078 C255.158503,100.181115 252.952202,101.108708 250.658305,100.989644 C248.364409,100.87058 245.971968,99.3864303 245.564104,97.1131345 C245.424499,96.3295258 245.443661,95.3687053 244.770273,94.9561339 C244.365146,94.7069297 243.839576,94.7706153 243.4016,94.5823277 C242.769273,94.3054341 242.454478,93.6021246 242.24644,92.9375801 C241.819033,91.5716229 241.58945,90.150251 241.564841,88.7177228 C241.537467,87.0203656 241.76193,85.1679479 240.809333,83.7696356 C239.927908,82.4765428 238.362146,81.8313809 237.34659,80.629663 C236.410418,79.522089 235.389387,78.1985379 233.853736,77.9880988 C231.789777,77.6862849 227.393599,80.6075116 226.137157,77.4952284 Z" id="Shape" fill="#000000" opacity="0.1"></path>
                <path d="M226.137157,77.4952195 C225.841523,76.7669901 226.065986,75.9252345 226.410891,75.2246944 C226.755797,74.5241543 227.251257,73.8872997 227.50583,73.1452256 C227.902745,72.0376524 227.779564,70.7971704 228.212065,69.7062107 C228.97031,67.7956469 231.124602,66.9372776 233.057168,66.2921162 C233.626536,66.1010598 234.234227,65.9072345 234.820019,66.0484501 C235.591951,66.2367376 236.109309,66.9538912 236.736162,67.4329167 C239.35854,69.4127038 243.620588,67.2335535 246.155371,69.3268669 C247.127129,70.1298575 247.597952,71.4118735 247.743032,72.6689691 C247.888111,73.9260648 247.743032,75.2025429 247.729345,76.4707143 C247.688285,78.6858608 248.096149,81.116984 249.741294,82.5872875 C250.236754,83.0303168 250.819809,83.3653577 251.301582,83.8222317 C251.783355,84.2791056 252.163846,84.9298049 252.078988,85.5860421 C252.010508,85.8917142 251.918996,86.1916351 251.805254,86.4831764 C251.476772,87.6378215 251.96402,88.8672278 252.558024,89.9083466 C254.331824,93.0095517 257.455136,95.5652769 261,95.6372692 C260.761851,97.4453825 258.90593,98.4948082 257.258048,99.2368822 C255.158503,100.183857 252.952202,101.108681 250.658305,100.989617 C248.364409,100.870553 245.971968,99.3864046 245.564104,97.0992659 C245.424499,96.3156578 245.443661,95.354838 244.770273,94.942267 C244.365146,94.693063 243.839576,94.7567485 243.4016,94.568461 C242.769273,94.2915677 242.454478,93.5882587 242.24644,92.9237148 C241.819033,91.5577585 241.58945,90.1363878 241.564841,88.7038607 C241.537467,87.0065047 241.76193,85.1540885 240.809333,83.7557773 C239.927908,82.4626855 238.362146,81.8175241 237.34659,80.6158071 C236.410418,79.5082339 235.389387,78.1846839 233.853736,77.974245 C231.789777,77.7001206 227.393599,80.6075003 226.137157,77.4952195 Z" id="Shape" fill="#585268"></path>
                <path d="M231.79118,98 L237,94.4604729 C237,94.4604729 233.434798,92.8424033 233.008787,91.4619877 C232.582776,90.0815721 229.730614,92.1168003 230.020664,93.3556347 C230.310715,94.5944692 231.79118,98 231.79118,98 Z" id="Shape" fill="#000000" opacity="0.1"></path>
                <path d="M231.79118,98 L237,94.4604729 C237,94.4604729 233.434798,92.8424033 233.008787,91.4619877 C232.582776,90.0815721 229.730614,92.1168003 230.020664,93.3556347 C230.310715,94.5944692 231.79118,98 231.79118,98 Z" id="Shape" fill="#67647E"></path>
                <circle id="Oval" fill="#000000" opacity="0.1" cx="237.5" cy="97.5" r="1"></circle>
                <circle id="Oval" fill="#000000" opacity="0.1" cx="237.5" cy="100.5" r="1"></circle>
                <circle id="Oval" fill="#000000" opacity="0.1" cx="237.5" cy="102.5" r="1"></circle>
                <g id="Group" opacity="0.1" transform="translate(226, 69)" fill="#000000">
                    <path d="M2.1572093,3.24137931 C2.53674419,2.20689655 2.45581395,1.04827586 2.81023256,0.00827586207 C2.64767749,0.238901467 2.51193697,0.486903657 2.4055814,0.747586207 C1.96465116,1.83448276 2.08744186,3.07586207 1.6855814,4.17655172 C1.6855814,4.19586207 1.66604651,4.21793103 1.65767442,4.24 C1.85461387,3.92286432 2.02182089,3.58860061 2.1572093,3.24137931 L2.1572093,3.24137931 Z" id="Shape"></path>
                    <path d="M32.5172093,29.2358621 C30.3767442,30.1793103 28.1274419,31.1006897 25.7860465,30.982069 C23.4446512,30.8634483 21.0111628,29.3848276 20.5953488,27.1062069 C20.4530233,26.3255172 20.4725581,25.3682759 19.7860465,24.9572414 C19.3730233,24.7089655 18.8372093,24.7724138 18.3906977,24.5848276 C17.7432558,24.3089655 17.4251163,23.6082759 17.2130233,22.9462069 C16.776754,21.5835704 16.5426905,20.1655968 16.5181395,18.7365517 C16.4902326,17.0455172 16.7162791,15.2 15.747907,13.8068966 C14.8493023,12.5186207 13.2530233,11.8758621 12.2176744,10.6786207 C11.2604651,9.57517241 10.2223256,8.25655172 8.65395349,8.04689655 C6.50511628,7.77103448 2.02046512,10.6675862 0.742325581,7.56689655 C0.537426561,6.98080126 0.566370144,6.3395225 0.823255814,5.7737931 C0.731162791,5.92827586 0.641860465,6.08275862 0.560930233,6.24 C0.198139535,6.93793103 -0.0306976744,7.77655172 0.281860465,8.50206897 C1.5627907,11.6027586 6.04465116,8.69241379 8.19627907,8.98206897 C9.76186047,9.19172414 10.8027907,10.5186207 11.76,11.6137931 C12.7953488,12.8 14.3888372,13.4537931 15.2874419,14.7448276 C16.2586047,16.1241379 16.0325581,17.9834483 16.0604651,19.6717241 C16.0834361,21.0997906 16.3165781,22.516947 16.7525581,23.8786207 C16.9646512,24.537931 17.2855814,25.257931 17.9302326,25.5172414 C18.3767442,25.702069 18.9125581,25.6413793 19.3255814,25.8896552 C20.0093023,26.297931 19.9925581,27.2689655 20.132093,28.0358621 C20.547907,30.3144828 22.9869767,31.7958621 25.3255814,31.9144828 C27.664186,32.0331034 29.9162791,31.1089655 32.0539535,30.1655172 C33.5944186,29.4896552 35.3106977,28.5489655 35.7711628,27.0096552 C35.0232558,28.022069 33.7172093,28.7089655 32.5172093,29.2358621 Z" id="Shape"></path>
                </g>
            </g>
        </g>
    </g>
</svg>