<?xml version="1.0" encoding="UTF-8"?>
<svg width="305px" height="252px" viewBox="0 0 305 252" version="1.1" xmlns="http://www.w3.org/2000/svg" xmlns:xlink="http://www.w3.org/1999/xlink">
    <title>undraw_events_2p66</title>
    <defs>
        <linearGradient x1="50.0008763%" y1="99.9984906%" x2="50.0008763%" y2="0%" id="linearGradient-1">
            <stop stop-color="#808080" stop-opacity="0.25" offset="0%"></stop>
            <stop stop-color="#808080" stop-opacity="0.12" offset="54%"></stop>
            <stop stop-color="#808080" stop-opacity="0.1" offset="100%"></stop>
        </linearGradient>
        <linearGradient x1="183421%" y1="80687%" x2="183421%" y2="19498%" id="linearGradient-2">
            <stop stop-color="#808080" stop-opacity="0.25" offset="0%"></stop>
            <stop stop-color="#808080" stop-opacity="0.12" offset="54%"></stop>
            <stop stop-color="#808080" stop-opacity="0.1" offset="100%"></stop>
        </linearGradient>
    </defs>
    <g id="Page-1" stroke="none" stroke-width="1" fill="none" fill-rule="evenodd">
        <g id="Walkthrough-1" transform="translate(-35, -90)">
            <g id="undraw_events_2p66" transform="translate(35, 90)">
                <path d="M284.8537,139.238609 C273.139078,158.11864 275.334188,183.839534 280.479272,204.119834 C282.200617,210.910352 284.184112,218.07847 282.712283,225.677682 C280.911977,234.969804 274.348757,242.266936 267.706576,246.445716 C255.59715,254.044928 241.769538,253.834101 231.700459,245.888755 C223.005297,239.025864 217.279061,227.055924 208.400711,220.561194 C193.556083,209.689443 173.171567,216.278574 155.471718,226.439177 C142.954855,233.610442 129.177777,242.73579 117.608443,237.568955 C109.469166,233.940842 104.393567,223.704719 102.024743,212.565501 C100.881391,207.187839 100.189694,201.313003 97.5681964,197.216036 C96.0079313,194.780512 93.8633564,193.150536 91.6398208,191.813201 C71.3468994,179.622994 43.8906557,189.815064 24.3210151,176.010615 C11.10298,166.690173 3.58907181,147.438836 1.1191785,126.853309 C-1.35071481,106.267782 0.680156543,84.2410799 3.22269377,62.5542181 C5.03247493,47.1355265 7.48025922,30.6406731 15.6037446,18.1011861 C24.1978363,4.83796465 37.7443483,-1.09351162 49.5189804,0.165157081 C61.2936124,1.42382579 71.5174547,8.85626449 80.3294781,17.9407059 C91.3429282,29.2938976 101.276195,43.7937611 115.530195,47.456487 C125.239213,49.9517977 135.842067,47.063153 146.166979,45.4300304 C163.405698,42.6987193 180.404375,43.4822406 197.283032,44.5080555 C213.441567,45.4898171 229.698013,46.7107258 244.754255,52.374735 C255.407644,56.3867414 263.584823,64.7380083 273.527565,70.1691638 C280.008666,73.7091695 287.320435,74.1591436 293.359355,78.8791512 C300.797461,84.6942006 307.234344,95.427498 304.255943,108.995947 C301.416514,121.903594 291.069493,129.219606 284.8537,139.238609 Z" id="Shape" fill="#6C63FF" fill-rule="nonzero" opacity="0.1"></path>
                <path d="M211,97 C211,97 243.41075,69.9825868 250.618131,56.3605495 C257.825511,42.7385121 267,31 267,31" id="Shape" stroke="#535461" stroke-width="2"></path>
                <path d="M260,62.9040177 L246,60 C246,60 249.303731,73.5854962 260,62.9040177 Z" id="Shape" fill="#6C63FF" fill-rule="nonzero"></path>
                <path d="M239.873092,47 L247,57.9776337 C247,57.9776337 233.066526,59.0127094 239.873092,47 Z" id="Shape" fill="#6C63FF" fill-rule="nonzero"></path>
                <path d="M265,51.5472132 L254,49 C254,49 260.909091,62.8823121 265,51.5472132 Z" id="Shape" fill="#6C63FF" fill-rule="nonzero"></path>
                <path d="M246.138006,40 L252,47.9650472 C252,47.9650472 241.623049,48.9854143 246.138006,40 Z" id="Shape" fill="#6C63FF" fill-rule="nonzero"></path>
                <path d="M261,38 C261,38 270.601035,38.531108 271.730569,39.5966026 C272.860102,40.6620971 270.298885,46.9075344 266.647668,45.887938 C262.996451,44.8683417 261,38 261,38 Z" id="Shape" fill="#6C63FF" fill-rule="nonzero"></path>
                <path d="M255.888499,27 C255.888499,27 260.155363,34.272655 259.995624,35.6576489 C259.835886,37.0426429 253.49242,38.5971693 252.21144,33.3589038 C250.930459,28.1206383 255.888499,27 255.888499,27 Z" id="Shape" fill="#6C63FF" fill-rule="nonzero"></path>
                <circle id="Oval" fill="#FFD037" fill-rule="nonzero" transform="translate(267.5, 34.5) rotate(-72.4744) translate(-267.5, -34.5)" cx="267.5" cy="34.5" r="3.5"></circle>
                <circle id="Oval" fill="#FFD037" fill-rule="nonzero" transform="translate(262.5, 30.5) rotate(-72.4744) translate(-262.5, -30.5)" cx="262.5" cy="30.5" r="3.5"></circle>
                <path d="M109.707118,201.443215 C109.707118,201.443215 114.799161,186.165978 82.5191887,167.749018 C82.5191887,167.749018 49.7428916,158.108073 53.0946559,125 C53.0946559,125 15.3111308,152.918502 40.8781503,188.481959 C66.4451699,224.045416 88.5127841,216.283236 88.5127841,216.283236 L109.707118,201.443215 Z" id="Shape" fill="#6C63FF" fill-rule="nonzero"></path>
                <path d="M101,207 C101,207 85.2770952,190.108112 70.2064369,183.577663 C67.1958945,182.230692 64.4295507,180.399181 62.0188612,178.156922 C52.4107678,169.428876 48.2213381,156.258876 50.6986206,143.556451 L54.3204705,125" id="Shape" stroke="#535461" stroke-width="2"></path>
                <polygon id="Rectangle-path" fill="url(#linearGradient-1)" fill-rule="nonzero" points="62 9 242 9 242 218 62 218"></polygon>
                <rect id="Rectangle-path" fill="#F7F7FD" fill-rule="nonzero" x="62" y="12" width="176" height="203"></rect>
                <polygon id="Rectangle-path" fill="#E2E2EC" fill-rule="nonzero" points="74 37 118 37 118 42 74 42"></polygon>
                <rect id="Rectangle-path" fill="#E2E2EC" fill-rule="nonzero" x="74" y="44" width="76" height="5"></rect>
                <polygon id="Rectangle-path" fill="#FFFFFF" fill-rule="nonzero" points="199 32 231 32 231 59 199 59"></polygon>
                <path d="M230.111111,32 L230.111111,58.1290323 L199,58.1290323 L199,32 L230.111111,32 L230.111111,32 Z M231,32 L199,32 L199,59 L231,59 L231,32 Z" id="Shape" fill="#E2E2EC" fill-rule="nonzero"></path>
                <polygon id="Rectangle-path" fill="#FFFFFF" fill-rule="nonzero" points="168 32 200 32 200 59 168 59"></polygon>
                <path d="M198.111111,32 L198.111111,58.1290323 L167,58.1290323 L167,32 L198.111111,32 L198.111111,32 Z M199,32 L167,32 L167,59 L199,59 L199,32 Z" id="Shape" fill="#E2E2EC" fill-rule="nonzero"></path>
                <polygon id="Rectangle-path" fill="#FFFFFF" fill-rule="nonzero" points="199 60 231 60 231 87 199 87"></polygon>
                <path d="M230.111111,60 L230.111111,86.1290323 L199,86.1290323 L199,60 L230.111111,60 L230.111111,60 Z M231,60 L199,60 L199,87 L231,87 L231,60 Z" id="Shape" fill="#E2E2EC" fill-rule="nonzero"></path>
                <polygon id="Rectangle-path" fill="#FFFFFF" fill-rule="nonzero" points="168 60 200 60 200 87 168 87"></polygon>
                <path d="M198.111111,60 L198.111111,86.1290323 L167,86.1290323 L167,60 L198.111111,60 L198.111111,60 Z M199,60 L167,60 L167,87 L199,87 L199,60 Z" id="Shape" fill="#E2E2EC" fill-rule="nonzero"></path>
                <polygon id="Rectangle-path" fill="#FFFFFF" fill-rule="nonzero" points="135 60 167 60 167 87 135 87"></polygon>
                <path d="M166.111111,60 L166.111111,86.1290323 L135,86.1290323 L135,60 L166.111111,60 L166.111111,60 Z M167,60 L135,60 L135,87 L167,87 L167,60 Z" id="Shape" fill="#E2E2EC" fill-rule="nonzero"></path>
                <polygon id="Rectangle-path" fill="#FFFFFF" fill-rule="nonzero" points="104 60 136 60 136 87 104 87"></polygon>
                <path d="M134.111111,60 L134.111111,86.1290323 L103,86.1290323 L103,60 L134.111111,60 L134.111111,60 Z M135,60 L103,60 L103,87 L135,87 L135,60 Z" id="Shape" fill="#E2E2EC" fill-rule="nonzero"></path>
                <polygon id="Rectangle-path" fill="#FFFFFF" fill-rule="nonzero" points="72 60 104 60 104 87 72 87"></polygon>
                <path d="M103.111111,60 L103.111111,86.1290323 L72,86.1290323 L72,60 L103.111111,60 L103.111111,60 Z M104,60 L72,60 L72,87 L104,87 L104,60 Z" id="Shape" fill="#E2E2EC" fill-rule="nonzero"></path>
                <polygon id="Rectangle-path" fill="#FFFFFF" fill-rule="nonzero" points="199 88 231 88 231 115 199 115"></polygon>
                <path d="M230.111111,88 L230.111111,114.129032 L199,114.129032 L199,88 L230.111111,88 L230.111111,88 Z M231,88 L199,88 L199,115 L231,115 L231,88 Z" id="Shape" fill="#E2E2EC" fill-rule="nonzero"></path>
                <rect id="Rectangle-path" fill="#FFFFFF" fill-rule="nonzero" x="168" y="88" width="32" height="27"></rect>
                <path d="M198.111111,88 L198.111111,114.129032 L167,114.129032 L167,88 L198.111111,88 L198.111111,88 Z M199,88 L167,88 L167,115 L199,115 L199,88 Z" id="Shape" fill="#E2E2EC" fill-rule="nonzero"></path>
                <rect id="Rectangle-path" fill="#FFFFFF" fill-rule="nonzero" x="135" y="88" width="32" height="27"></rect>
                <path d="M166.111111,88 L166.111111,114.129032 L135,114.129032 L135,88 L166.111111,88 L166.111111,88 Z M167,88 L135,88 L135,115 L167,115 L167,88 Z" id="Shape" fill="#E2E2EC" fill-rule="nonzero"></path>
                <polygon id="Rectangle-path" fill="#FFFFFF" fill-rule="nonzero" points="104 88 136 88 136 115 104 115"></polygon>
                <path d="M134.111111,88 L134.111111,114.129032 L103,114.129032 L103,88 L134.111111,88 L134.111111,88 Z M135,88 L103,88 L103,115 L135,115 L135,88 Z" id="Shape" fill="#E2E2EC" fill-rule="nonzero"></path>
                <polygon id="Rectangle-path" fill="#FFFFFF" fill-rule="nonzero" points="72 88 104 88 104 115 72 115"></polygon>
                <path d="M103.111111,88 L103.111111,114.129032 L72,114.129032 L72,88 L103.111111,88 L103.111111,88 Z M104,88 L72,88 L72,115 L104,115 L104,88 Z" id="Shape" fill="#E2E2EC" fill-rule="nonzero"></path>
                <polygon id="Rectangle-path" fill="#FFFFFF" fill-rule="nonzero" points="199 116 231 116 231 143 199 143"></polygon>
                <path d="M230.111111,116 L230.111111,142.129032 L199,142.129032 L199,116 L230.111111,116 L230.111111,116 Z M231,116 L199,116 L199,143 L231,143 L231,116 Z" id="Shape" fill="#E2E2EC" fill-rule="nonzero"></path>
                <rect id="Rectangle-path" fill="#FFFFFF" fill-rule="nonzero" x="168" y="116" width="32" height="27"></rect>
                <path d="M198.111111,116 L198.111111,142.129032 L167,142.129032 L167,116 L198.111111,116 L198.111111,116 Z M199,116 L167,116 L167,143 L199,143 L199,116 Z" id="Shape" fill="#E2E2EC" fill-rule="nonzero"></path>
                <rect id="Rectangle-path" fill="#FFFFFF" fill-rule="nonzero" x="135" y="116" width="32" height="27"></rect>
                <path d="M166.111111,116 L166.111111,142.129032 L135,142.129032 L135,116 L166.111111,116 L166.111111,116 Z M167,116 L135,116 L135,143 L167,143 L167,116 Z" id="Shape" fill="#E2E2EC" fill-rule="nonzero"></path>
                <polygon id="Rectangle-path" fill="#FFFFFF" fill-rule="nonzero" points="104 116 136 116 136 143 104 143"></polygon>
                <path d="M134.111111,116 L134.111111,142.129032 L103,142.129032 L103,116 L134.111111,116 L134.111111,116 Z M135,116 L103,116 L103,143 L135,143 L135,116 Z" id="Shape" fill="#E2E2EC" fill-rule="nonzero"></path>
                <polygon id="Rectangle-path" fill="#FFFFFF" fill-rule="nonzero" points="72 116 104 116 104 143 72 143"></polygon>
                <path d="M103.111111,116 L103.111111,142.129032 L72,142.129032 L72,116 L103.111111,116 L103.111111,116 Z M104,116 L72,116 L72,143 L104,143 L104,116 Z" id="Shape" fill="#E2E2EC" fill-rule="nonzero"></path>
                <polygon id="Rectangle-path" fill="#FFFFFF" fill-rule="nonzero" points="199 141 231 141 231 168 199 168"></polygon>
                <path d="M230.111111,141 L230.111111,167.129032 L199,167.129032 L199,141 L230.111111,141 L230.111111,141 Z M231,141 L199,141 L199,168 L231,168 L231,141 Z" id="Shape" fill="#E2E2EC" fill-rule="nonzero"></path>
                <rect id="Rectangle-path" fill="#FFFFFF" fill-rule="nonzero" x="168" y="141" width="32" height="27"></rect>
                <path d="M198.111111,141 L198.111111,167.129032 L167,167.129032 L167,141 L198.111111,141 L198.111111,141 Z M199,141 L167,141 L167,168 L199,168 L199,141 Z" id="Shape" fill="#E2E2EC" fill-rule="nonzero"></path>
                <rect id="Rectangle-path" fill="#FFFFFF" fill-rule="nonzero" x="135" y="141" width="32" height="27"></rect>
                <path d="M166.111111,141 L166.111111,167.129032 L135,167.129032 L135,141 L166.111111,141 L166.111111,141 Z M167,141 L135,141 L135,168 L167,168 L167,141 Z" id="Shape" fill="#E2E2EC" fill-rule="nonzero"></path>
                <polygon id="Rectangle-path" fill="#FFFFFF" fill-rule="nonzero" points="104 141 136 141 136 168 104 168"></polygon>
                <path d="M134.111111,141 L134.111111,167.129032 L103,167.129032 L103,141 L134.111111,141 L134.111111,141 Z M135,141 L103,141 L103,168 L135,168 L135,141 Z" id="Shape" fill="#E2E2EC" fill-rule="nonzero"></path>
                <polygon id="Rectangle-path" fill="#FFFFFF" fill-rule="nonzero" points="72 141 104 141 104 168 72 168"></polygon>
                <path d="M103.111111,141 L103.111111,167.129032 L72,167.129032 L72,141 L103.111111,141 L103.111111,141 Z M104,141 L72,141 L72,168 L104,168 L104,141 Z" id="Shape" fill="#E2E2EC" fill-rule="nonzero"></path>
                <polygon id="Rectangle-path" fill="#FFFFFF" fill-rule="nonzero" points="199 170 231 170 231 197 199 197"></polygon>
                <path d="M230.111111,170 L230.111111,196.129032 L199,196.129032 L199,170 L230.111111,170 L230.111111,170 Z M231,170 L199,170 L199,197 L231,197 L231,170 Z" id="Shape" fill="#E2E2EC" fill-rule="nonzero"></path>
                <polygon id="Rectangle-path" fill="#FFFFFF" fill-rule="nonzero" points="168 170 200 170 200 197 168 197"></polygon>
                <path d="M198.111111,170 L198.111111,196.129032 L167,196.129032 L167,170 L198.111111,170 L198.111111,170 Z M199,170 L167,170 L167,197 L199,197 L199,170 Z" id="Shape" fill="#E2E2EC" fill-rule="nonzero"></path>
                <polygon id="Rectangle-path" fill="#FFFFFF" fill-rule="nonzero" points="135 170 167 170 167 197 135 197"></polygon>
                <path d="M166.111111,170 L166.111111,196.129032 L135,196.129032 L135,170 L166.111111,170 L166.111111,170 Z M167,170 L135,170 L135,197 L167,197 L167,170 Z" id="Shape" fill="#E2E2EC" fill-rule="nonzero"></path>
                <polygon id="Rectangle-path" fill="#FFFFFF" fill-rule="nonzero" points="104 170 136 170 136 197 104 197"></polygon>
                <path d="M134.111111,170 L134.111111,196.129032 L103,196.129032 L103,170 L134.111111,170 L134.111111,170 Z M135,170 L103,170 L103,197 L135,197 L135,170 Z" id="Shape" fill="#E2E2EC" fill-rule="nonzero"></path>
                <polygon id="Rectangle-path" fill="#FFFFFF" fill-rule="nonzero" points="72 170 104 170 104 197 72 197"></polygon>
                <path d="M103.111111,170 L103.111111,196.129032 L72,196.129032 L72,170 L103.111111,170 L103.111111,170 Z M104,170 L72,170 L72,197 L104,197 L104,170 Z" id="Shape" fill="#E2E2EC" fill-rule="nonzero"></path>
                <path d="M137.88214,220.730123 C138.801007,220.14927 139.665256,219.464025 139.931921,218.628881 C140.216183,217.710929 139.585671,216.768674 138.499002,216.487488 C137.184958,216.144865 135.780955,216.755162 134.714298,217.38955 C133.647642,218.023938 132.429982,218.727921 131.035618,218.59676 C132.478175,217.726819 133.165718,216.316177 132.767328,215.034018 C132.699027,214.757766 132.53085,214.505557 132.285405,214.311297 C131.556095,213.775949 130.232412,214.008826 129.358525,214.426397 C126.579434,215.764768 125.805144,218.321056 125.78908,220.631084 C125.509564,219.798617 125.7441,218.931353 125.737675,218.074796 C125.731249,217.218239 125.387477,216.273349 124.327246,215.812949 C123.648743,215.567854 122.913884,215.449975 122.174656,215.46765 C120.924868,215.435529 119.533716,215.521185 118.682319,216.142189 C117.622087,216.91309 117.89839,218.208633 118.82047,219.05716 C119.74255,219.905687 121.146553,220.438358 122.434894,221.024565 C123.418018,221.471581 124.413992,221.993545 125.005151,222.700205 C125.082664,222.793816 125.147324,222.894376 125.197921,223 L133.027567,223 C134.752243,222.41362 136.382898,221.651167 137.88214,220.730123 L137.88214,220.730123 Z" id="Shape" fill="#6C63FF" fill-rule="nonzero"></path>
                <circle id="Oval" fill="#FC6681" fill-rule="nonzero" cx="76.5" cy="64.5" r="2.5"></circle>
                <circle id="Oval" fill="#FFD037" fill-rule="nonzero" cx="80.5" cy="64.5" r="2.5"></circle>
                <circle id="Oval" fill="#6C63FF" fill-rule="nonzero" cx="139.5" cy="90.5" r="2.5"></circle>
                <circle id="Oval" fill="#6C63FF" fill-rule="nonzero" cx="145.5" cy="90.5" r="2.5"></circle>
                <circle id="Oval" fill="#6C63FF" fill-rule="nonzero" cx="235.5" cy="143.5" r="2.5"></circle>
                <circle id="Oval" fill="#6C63FF" fill-rule="nonzero" cx="236.5" cy="140.5" r="2.5"></circle>
                <circle id="Oval" fill="#6C63FF" fill-rule="nonzero" cx="239.5" cy="137.5" r="2.5"></circle>
                <circle id="Oval" fill="#6C63FF" fill-rule="nonzero" cx="204.5" cy="64.5" r="2.5"></circle>
                <circle id="Oval" fill="#6C63FF" fill-rule="nonzero" cx="208.5" cy="64.5" r="2.5"></circle>
                <circle id="Oval" fill="#6C63FF" fill-rule="nonzero" cx="213.5" cy="64.5" r="2.5"></circle>
                <circle id="Oval" fill="#6C63FF" fill-rule="nonzero" cx="217.5" cy="64.5" r="2.5"></circle>
                <circle id="Oval" fill="#6C63FF" fill-rule="nonzero" cx="204.5" cy="119.5" r="2.5"></circle>
                <circle id="Oval" fill="#6C63FF" fill-rule="nonzero" cx="208.5" cy="119.5" r="2.5"></circle>
                <circle id="Oval" fill="#6C63FF" fill-rule="nonzero" cx="213.5" cy="119.5" r="2.5"></circle>
                <circle id="Oval" fill="#6C63FF" fill-rule="nonzero" cx="217.5" cy="119.5" r="2.5"></circle>
                <circle id="Oval" fill="#FFD037" fill-rule="nonzero" cx="108.5" cy="90.5" r="2.5"></circle>
                <circle id="Oval" fill="#FC6681" fill-rule="nonzero" cx="76.5" cy="119.5" r="2.5"></circle>
                <path d="M234.074089,144.486304 C236.056299,145.644193 239.148547,146.397292 243.065395,143.908929 L243.027336,149.419101 C243.306432,153.184594 248.02885,166.963163 248.02885,166.963163 L251.358963,178.291022 C253.745105,186.293653 254.977251,194.589541 255.018916,202.93304 C255.018916,205.697539 255.278982,208.546763 256.081381,210.689956 C257.85427,215.43134 255.383643,221.540853 254.311664,223.815839 C252.507229,224.418881 250.67273,224.929985 248.815391,225.34714 C248.648317,225.385141 248.484071,225.434416 248.323802,225.494622 L248.301602,225.463243 C248.301602,225.463243 243.30326,227.424437 241.083185,227.154577 C239.427642,226.95375 238.39055,228.996531 239.687708,230.49959 C238.463495,230.813381 237.207567,231.036173 236.360767,230.932622 C234.140691,230.662762 233.027482,234.440807 237.194881,235.520248 C241.36228,236.59969 264.974369,235.520248 264.974369,235.520248 C266.340409,234.844059 267.070965,233.339064 266.75043,231.861444 C268.564549,231.79241 269.696787,231.739065 269.696787,231.739065 C269.696787,231.739065 273.864186,229.856318 269.696787,224.719558 L269.47478,224.885867 L268.583578,222.290814 L268.583578,218.785767 C268.583578,218.785767 273.861015,193.682477 272.195958,190.714013 C270.530901,187.745549 269.696787,172.63023 269.696787,172.63023 L270.261321,156.16561 C271.767801,153.090457 272.538484,148.270625 272.928583,144.501994 C273.495389,142.704072 273.852915,140.848012 273.994219,138.969856 C274.060822,138.084965 274.114738,137.156143 274.149625,136.192805 C274.163675,134.079776 273.81404,131.9798 273.115704,129.982878 C274.701472,127.723582 277.279931,124.231087 279.408032,122.166341 C282.741317,118.928017 281.907203,115.146834 281.907203,115.146834 L280.51807,105.968443 L277.184785,90.3134039 C277.603428,85.9705347 276.686854,83.4696194 275.675134,82.0575593 C275.916171,80.654913 276.14135,79.2522667 276.309441,77.8433445 C277.04828,71.7164399 276.718947,65.5095269 275.335779,59.4928394 C274.853706,57.3935767 274.197198,55.2409696 272.709747,53.6500486 C271.025661,51.8488875 268.291797,50.7506185 267.663832,48.3909093 C267.508427,47.8041199 267.502084,47.1796755 267.276905,46.6148515 C266.66797,45.0709991 264.739676,44.509313 263.052418,44.3084867 C260.045802,43.9476269 255.697625,43.6809044 252.808355,44.8419316 C250.791258,45.6577885 248.012992,47.904533 246.909297,50.3144489 C246.27499,51.4221316 245.980037,52.5862966 246.249618,53.6814277 C246.355943,54.0849393 246.517042,54.472335 246.72852,54.8330411 C246.298087,55.9872906 246.078998,57.2081964 246.081526,58.4385012 C246.102046,62.7664334 248.796817,66.6412624 252.874957,68.206819 C252.94156,68.4139211 253.001819,68.6178853 253.052564,68.8187117 C253.17878,69.3022209 253.26993,69.7940324 253.325316,70.2903921 C253.2714,71.2317654 253.21114,72.20138 253.166739,73.158443 C253.135023,73.2902352 253.101194,73.4199356 253.06525,73.547544 C250.676169,74.5940731 248.34688,75.7694159 246.087869,77.0682804 C247.756097,79.4970237 245.808774,89.7548557 245.808774,89.7548557 C241.641375,92.183599 237.473976,98.3935255 241.92047,104.870174 C246.366964,111.346823 243.864622,118.363193 243.864622,118.363193 L243.170056,128.915988 L243.170056,128.915988 L243.170056,128.934816 L243.030508,131.04663 L243.084424,131.04663 L243.030508,131.846798 L243.151026,131.868763 L243.151026,132.728551 C241.200531,133.437719 238.34932,134.868606 236.649376,137.513865 C235.845523,138.815129 234.867193,140.002645 233.741077,141.044016 C233.216148,141.493432 232.943629,142.166494 233.00977,142.850183 C233.075911,143.533873 233.472525,144.143568 234.074089,144.486304 Z M267.526756,116.888889 C267.343984,115.054957 267.716824,113.210522 268.604853,111.555556 C269.318962,111.568164 270.034227,111.575519 270.750648,111.57762 C270.823445,112.034673 270.910109,112.469661 271.014106,112.866824 C271.631151,115.256107 269.166434,116.400315 267.523289,116.885737 L267.526756,116.888889 Z" id="Shape" fill="url(#linearGradient-2)" fill-rule="nonzero"></path>
                <path d="M267.897642,222.848786 L269,225.638521 L265.401799,228.673841 L253.547363,231 L245,230.301876 L245.552815,227.743929 L245.552815,227.743929 C245.88573,226.622756 246.933643,225.752617 248.267821,225.489514 C251.780973,224.79415 258.480169,223.204746 259.886738,221 L267.897642,222.848786 Z" id="Shape" fill="#DB8B8B" fill-rule="nonzero"></path>
                <path d="M267.897642,222.848786 L269,225.638521 L265.401799,228.673841 L253.547363,231 L245,230.301876 L245.552815,227.743929 L245.552815,227.743929 C245.88573,226.622756 246.933643,225.752617 248.267821,225.489514 C251.780973,224.79415 258.480169,223.204746 259.886738,221 L267.897642,222.848786 Z" id="Shape" fill="#000000" fill-rule="nonzero" opacity="0.1"></path>
                <path d="M248.075235,230.042753 L249.7202,228.025652 L248.075235,225.688328 C248.075235,225.688328 243.143589,227.51988 240.952469,227.268491 C238.761349,227.017101 237.665789,230.560496 241.774952,231.557076 C245.884115,232.553655 269.173705,231.557076 269.173705,231.557076 C269.173705,231.557076 273.282868,229.791364 269.173705,225 L265.597693,227.522873 C265.597693,227.522873 259.570488,230.548525 256.556885,230.045746 L248.075235,230.042753 Z" id="Shape" fill="#2E3037" fill-rule="nonzero"></path>
                <path d="M243,234.302454 L251.547363,235 L263.401799,232.675765 L267,229.642956 L266.708873,228.904053 L266.296715,227.867384 L265.884558,226.858285 L257.89001,225 C257.481567,225.561887 256.9211,226.034287 256.254464,226.37855 C253.657217,227.875655 248.99264,228.956438 246.254736,229.496829 C246.143778,229.519803 246.034547,229.548344 245.927627,229.582299 C244.749314,229.915976 243.854082,230.732899 243.552815,231.74938 L243,234.302454 Z" id="Shape" fill="#DB8B8B" fill-rule="nonzero"></path>
                <path d="M243,234.199005 L251.547363,235 L263.401799,232.331072 L267,228.848485 L266.708873,228 L263.418155,230.450475 C263.418155,230.450475 257.35355,233.651289 254.321248,233.119403 L245.75753,233.119403 L247.412703,230.985527 L245.927627,228.769335 C244.749314,229.152498 243.854082,230.090573 243.552815,231.257802 L243,234.199005 Z" id="Shape" fill="#000000" fill-rule="nonzero" opacity="0.1"></path>
                <path d="M246.075235,235.042753 L247.7202,233.025652 L246.075235,230.688328 C246.075235,230.688328 241.143589,232.51988 238.952469,232.268491 C236.761349,232.017101 235.665789,235.560496 239.774952,236.557076 C243.884115,237.553655 267.173705,236.557076 267.173705,236.557076 C267.173705,236.557076 271.282868,234.791364 267.173705,230 L263.597693,232.522873 C263.597693,232.522873 257.570488,235.548525 254.556885,235.045746 L246.075235,235.042753 Z" id="Shape" fill="#2E3037" fill-rule="nonzero"></path>
                <path d="M250,79.8549948 C250,79.8549948 262,81.1610747 260.250124,75.9336528 C259.760811,74.451234 259.633372,72.8644213 259.879387,71.3173894 C260.190659,69.3993614 260.915908,67.5808138 262,66 L250.750371,67.8303733 C251.424431,69.0094313 251.937556,70.2812916 252.274839,71.6090082 C253.615423,77.1528675 250,79.8549948 250,79.8549948 Z" id="Shape" fill="#DB8B8B" fill-rule="nonzero"></path>
                <path d="M271,141 C271,141 270.742489,152.265975 268.158185,157.768397 L267.640098,173.750289 C267.640098,173.750289 268.415696,188.423413 269.966891,191.30519 C271.518087,194.186966 266.594727,218.553057 266.594727,218.553057 L266.594727,222.746711 C266.594727,222.746711 258.317597,225.889619 256,222.221338 L258.326793,191.040949 L257.293685,147.81119 L271,141 Z" id="Shape" fill="#474463" fill-rule="nonzero"></path>
                <path d="M271,141 C271,141 270.742489,152.265975 268.158185,157.768397 L267.640098,173.750289 C267.640098,173.750289 268.415696,188.423413 269.966891,191.30519 C271.518087,194.186966 266.594727,218.553057 266.594727,218.553057 L266.594727,222.746711 C266.594727,222.746711 258.317597,225.889619 256,222.221338 L258.326793,191.040949 L257.293685,147.81119 L271,141 Z" id="Shape" fill="#000000" fill-rule="nonzero" opacity="0.1"></path>
                <path d="M276.988935,106 L278.588724,110.390907 L279.919774,119.719551 C280.284669,122.35613 279.391028,125.01192 277.52009,126.851113 C274.323673,130.141852 270.058622,137 270.058622,137 L265,121.376312 C265,121.376312 270.058622,120.552814 269.265051,116.985405 C268.47148,113.417997 268.727572,106.810479 268.727572,106.810479 L276.988935,106 Z" id="Shape" fill="#F95F5F" fill-rule="nonzero"></path>
                <path d="M301.988935,122 L303.588724,126.390907 L304.919774,135.719551 C305.284669,138.35613 304.391028,141.01192 302.52009,142.851113 C299.323673,146.141852 295.058622,153 295.058622,153 L290,137.376312 C290,137.376312 295.058622,136.552814 294.265051,132.985405 C293.47148,129.417997 293.727572,122.810479 293.727572,122.810479 L301.988935,122 Z" id="Shape" fill="#000000" fill-rule="nonzero" opacity="0.05"></path>
                <path d="M255,227.015891 C258.177335,233.856241 263.124102,229.981384 264,229.208827 L263.641411,227.711997 L256.457871,225 C256.09456,225.819648 255.595062,226.510336 255,227.015891 L255,227.015891 Z" id="Shape" fill="#000000" fill-rule="nonzero" opacity="0.1"></path>
                <path d="M243,152.433456 C243.249138,156.14448 247.499305,169.661415 247.499305,169.661415 L250.497853,180.785053 C252.646532,188.650309 253.755489,196.793685 253.792993,204.982191 C253.792993,207.69627 254.027301,210.495263 254.750986,212.599226 C256.750018,218.429937 252.751954,226.38348 252.751954,226.38348 C256.251743,233.00986 262.242907,228.503167 262.242907,228.503167 L262.242907,224.263793 C262.242907,224.263793 266.988384,201.201978 265.742696,196.698429 C264.497009,192.194881 263.992802,179.998819 263.992802,179.998819 L263.992802,157.984268 C267.997061,153.753486 270.43209,148.13627 270.852981,142.15895 C270.9123,141.290948 270.959755,140.378916 270.99238,139.43229 C271.194063,133.456912 267.338363,126.44056 265.831674,123.943481 C265.469831,123.339653 265.238489,123 265.238489,123 L243.166092,132.283851 L243.115671,132.305866 L243.115671,133.211607 L243.115671,135.214931 L243,152.433456 Z" id="Shape" fill="#474463" fill-rule="nonzero"></path>
                <path d="M252,68.0394702 C252.659103,69.3554512 253.160841,70.7750114 253.490641,72.2569145 C255.904545,73.350399 258.586081,73.2330213 260.926443,71.9314303 C261.23123,69.7918724 261.940368,67.7633752 263,66 L252,68.0394702 Z" id="Shape" fill="#000000" fill-rule="nonzero" opacity="0.1"></path>
                <circle id="Oval" fill="#DB8B8B" fill-rule="nonzero" cx="256" cy="63" r="11"></circle>
                <path d="M243,133.718008 L243.116898,133.737359 C254.592357,135.747159 269,125.562701 269,125.562701 C268.613919,125.008488 268.280562,124.428854 268.003122,123.829353 C267.606969,123.298567 267.353691,123 267.353691,123 L243.188335,131.160835 L243.126639,131.976366 L243,133.718008 Z" id="Shape" fill="#000000" fill-rule="nonzero" opacity="0.1"></path>
                <path d="M245.696678,81.2467665 C245.696678,81.2467665 260.285873,72.1633262 264.974816,75.9031934 L271.487408,84.4605168 C271.487408,84.4605168 275.657074,85.7948254 274.887432,94.3426406 L278,109.831396 L268.622115,112.236955 C268.622115,112.236955 263.151166,117.580528 267.580471,125.32649 C267.580471,125.32649 253.773281,137.078548 242.831384,134.676158 L243.61339,122.122248 C243.61339,122.122248 245.959407,115.178138 241.78974,108.766485 C237.620074,102.354831 241.530102,96.2125743 245.437039,93.8070156 C245.437039,93.8038462 247.257598,83.6523252 245.696678,81.2467665 Z" id="Shape" fill="#E54E4E" fill-rule="nonzero"></path>
                <path d="M245.356374,135 C245.356374,135 239.945003,135.965519 237.367723,139.830458 C236.624094,140.989756 235.717088,142.049817 234.671209,142.982003 C234.194177,143.38748 233.948802,143.97983 234.008954,144.580726 C234.069105,145.181623 234.427756,145.720873 234.976936,146.036136 C237.022251,147.182152 240.357735,147.895547 244.570655,144.652321 C251.798047,139.105603 245.356374,135 245.356374,135 Z" id="Shape" fill="#DB8B8B" fill-rule="nonzero"></path>
                <path d="M252.831786,84.2015025 C252.831786,84.2015025 258.036397,83.6633261 259.336006,97.6208834 C260.635615,111.578441 262.73166,114.797946 262.73166,114.797946 C262.73166,114.797946 264.031269,122.045812 260.910354,126.338486 C257.78944,130.631159 251.803829,139.757867 251.803829,139.757867 C251.803829,139.757867 245.299609,141.636707 244,134.927017 L252.066221,119.361299 C252.066221,119.361299 253.36583,113.992273 250.244916,110.234592 C247.124001,106.47691 244.765566,81.5169895 252.831786,84.2015025 Z" id="Shape" fill="#000000" fill-rule="nonzero" opacity="0.1"></path>
                <path d="M252.831786,84.2015025 C252.831786,84.2015025 258.036397,83.6633261 259.336006,97.6208834 C260.635615,111.578441 262.73166,114.797946 262.73166,114.797946 C262.73166,114.797946 264.031269,122.045812 260.910354,126.338486 C257.78944,130.631159 251.803829,139.757867 251.803829,139.757867 C251.803829,139.757867 245.299609,141.636707 244,134.927017 L252.066221,119.361299 C252.066221,119.361299 253.36583,113.992273 250.244916,110.234592 C247.124001,106.47691 244.774826,81.5169895 252.831786,84.2015025 Z" id="Shape" fill="#F95F5F" fill-rule="nonzero"></path>
                <path d="M249.067854,95 C249.067854,95 248.351149,103.443566 251.57632,108.089145 C254.801491,112.734723 254.814289,118.722861 251.57632,122" id="Shape" fill="#000000" fill-rule="nonzero" opacity="0.1"></path>
                <path d="M246,87 C246,87 248.249166,84.6482903 254.719689,84.3517097 C261.190211,84.0551291 264,82 264,82" id="Shape" fill="#000000" fill-rule="nonzero" opacity="0.1"></path>
                <path d="M260.613368,49.3077172 C262.202074,49.5076067 264.026603,50.0660284 264.591338,51.5921695 C264.802338,52.153764 264.808544,52.7724699 264.954382,53.3531015 C265.547044,55.6883195 268.119382,56.7766072 269.704985,58.562922 C271.104412,60.1493473 271.721897,62.2719842 272.187338,64.3502013 C273.493084,70.3097073 273.807781,76.4515427 273.118221,82.5179432 C272.609338,86.9599338 271.56675,91.3194304 271.275074,95.7741125 C270.983397,100.228795 271.517103,104.915095 273.897059,108.659058 C274.921029,110.267694 276.273912,111.682785 277,113.453235 C275.501279,114.696993 273.431618,114.874672 271.498485,114.941302 C269.249887,115.019566 267.000255,115.019566 264.749588,114.941302 C263.570471,114.900055 262.338603,114.820734 261.320838,114.211547 C260.567237,113.718723 259.948063,113.03866 259.521133,112.234861 C258.233412,110.013865 257.910706,107.316943 257.969662,104.727897 C258.028618,102.138851 258.425794,99.562496 258.472338,96.9702771 C258.497162,95.5583587 258.388559,94.0576004 257.594206,92.9026828 C257.020162,92.0682231 256.148235,91.5066286 255.40353,90.8308114 C252.610883,88.2925311 251.642765,84.2249367 251.549677,80.4016519 C251.456588,76.5783671 252.074074,72.7487365 251.757574,68.9381431 C251.633456,67.4469034 251.087338,65.6542428 249.65378,65.3655135 C249.20075,65.2735008 248.722897,65.3655135 248.288486,65.1878338 C247.137294,64.7341162 247.249,63.0747154 246.920088,61.8595137 C246.550838,60.495188 245.412059,59.4418016 245.092456,58.0520931 C244.338441,54.8157856 248.366059,50.9544266 251.006662,49.8280646 C253.690706,48.6794928 257.783485,48.9523579 260.613368,49.3077172 Z" id="Shape" fill="#000000" fill-rule="nonzero" opacity="0.1"></path>
                <path d="M260.613368,49.3100684 C262.202074,49.5099508 264.026603,50.0683525 264.591338,51.5944389 C264.802338,52.1560134 264.808544,52.7746971 264.954382,53.3553079 C265.547044,55.6904423 268.119382,56.7786911 269.704985,58.564942 C271.104412,60.1513104 271.721897,62.2738714 272.187338,64.3520141 C273.493084,70.3113068 273.807781,76.4529224 273.118221,82.5191057 C272.609338,86.9609374 271.56675,91.320278 271.275074,95.7748006 C270.983397,100.229323 271.517103,104.915456 273.897059,108.659285 C274.921029,110.267863 276.273912,111.682904 277,113.453291 C275.501279,114.697004 273.431618,114.874677 271.498485,114.941304 C269.249887,115.019565 267.000255,115.019565 264.749588,114.941304 C263.570471,114.900059 262.338603,114.82074 261.320838,114.211575 C260.567237,113.718768 259.948063,113.03873 259.521133,112.23496 C258.233412,110.014044 257.910706,107.317218 257.969662,104.728264 C258.028618,102.139311 258.425794,99.5630485 258.472338,96.9709224 C258.497162,95.5590545 258.388559,94.0583499 257.594206,92.9034737 C257.020162,92.0690439 256.148235,91.5074694 255.40353,90.8316765 C252.610883,88.2934869 251.642765,84.2260382 251.549677,80.4028902 C251.456588,76.5797422 252.074074,72.7502488 251.757574,68.9397917 C251.633456,67.4486054 251.087338,65.656009 249.65378,65.3672899 C249.20075,65.2752806 248.722897,65.3672899 248.288486,65.1896167 C247.137294,64.7359153 247.249,63.0765739 246.920088,61.8614156 C246.550838,60.4971388 245.412059,59.4437901 245.092456,58.0541313 C244.338441,54.8179397 248.366059,50.9567188 251.006662,49.8303972 C253.690706,48.6786937 257.783485,48.9515491 260.613368,49.3100684 Z" id="Shape" fill="#472727" fill-rule="nonzero"></path>
            </g>
        </g>
    </g>
</svg>