<?xml version="1.0" encoding="UTF-8"?>
<svg width="375px" height="277px" viewBox="0 0 375 277" version="1.1" xmlns="http://www.w3.org/2000/svg" xmlns:xlink="http://www.w3.org/1999/xlink">
    <title>Group</title>
    <g id="Page-1" stroke="none" stroke-width="1" fill="none" fill-rule="evenodd">
        <g id="Walkthrough-2" transform="translate(0, -535)" fill="#6074F9">
            <g id="Group" transform="translate(-0.0023, 535.6632)">
                <path d="M66.2645977,36.1846095 C129.611383,60.444386 190.767466,60.444386 249.732847,36.1846095 C308.698227,11.9248331 350.454707,6.66638737 375.002285,20.4092723 L375.002285,276.336751 L119.871525,276.336751 L0,276.336751 L19,137.569177 L66.2645977,36.1846095 Z" id="Path-2" opacity="0.200000003" transform="translate(187.5011, 144.6456) scale(-1, 1) translate(-187.5011, -144.6456)"></path>
                <path d="M0.0022854579,31.7261306 C75.4638255,53.0018642 145.559053,50.3336111 210.287967,23.7213715 C307.381338,-16.1969879 375.005948,6.33675123 375.005948,6.33675123 C375.005948,13.7279839 375.005948,23.7097189 375.005948,44.233698 C375.005948,71.1603071 375.005948,148.527991 375.005948,276.336751 L77.8356188,276.336751 L0.0022854579,276.336751 L0.0022854579,138.336751 L0.0022854579,31.7261306 Z" id="Path-2"></path>
            </g>
        </g>
    </g>
</svg>