<?xml version="1.0" encoding="UTF-8"?>
<svg width="314px" height="229px" viewBox="0 0 314 229" version="1.1" xmlns="http://www.w3.org/2000/svg" xmlns:xlink="http://www.w3.org/1999/xlink">
    <title>undraw_superhero_kguv</title>
    <defs>
        <linearGradient x1="50.0040125%" y1="99.9934854%" x2="50.0040125%" y2="0.001584447%" id="linearGradient-1">
            <stop stop-color="#808080" stop-opacity="0.25" offset="0%"></stop>
            <stop stop-color="#808080" stop-opacity="0.12" offset="54%"></stop>
            <stop stop-color="#808080" stop-opacity="0.1" offset="100%"></stop>
        </linearGradient>
        <path d="M7.11858896,14.7645223 C7.11858896,14.7645223 22.3981748,19.370276 43.7932209,12.4601274 C65.1882669,5.54997877 109.501181,22.4397665 109.501181,22.4397665 C109.501181,22.4397665 144.646948,22.4397665 196.604187,0.176093418 C196.604187,0.176093418 172.918865,23.2078981 189.727316,37.0281953 C206.535767,50.8484926 191.256181,70.8077707 171.39,78.486051 C151.523819,86.1643312 149.997975,101.517856 151.523819,116.106285 C153.049663,130.694713 151.523819,116.874416 151.523819,116.874416 C151.523819,116.874416 91.9282975,106.126645 76.6456902,142.98482 L1.00615031,23.2109342 C1.00615031,23.2109342 -3.57742331,13.9994268 7.11858896,14.7645223 Z" id="path-2"></path>
    </defs>
    <g id="Page-1" stroke="none" stroke-width="1" fill="none" fill-rule="evenodd">
        <g id="Walkthrough-2" transform="translate(-31, -108)">
            <g id="undraw_superhero_kguv" transform="translate(31, 108)">
                <path d="M265.646637,69.2655014 C264.846192,68.6094397 264.098412,67.890776 263.410265,67.1162049 C263.410265,67.3008628 263.410265,67.4855206 263.410265,67.6701785 C257.948589,62.0577903 258.140965,55.2587483 260.377336,49.0560603 L261.116782,48.7805871 C264.627645,39.4326611 272.674374,31.5922698 272.674374,31.5922698 L271.472024,32.1008358 C271.844753,31.713357 272.05817,31.4954001 272.05817,31.4954001 C222.160631,52.9308483 187.442765,54.1810729 183.571197,54.2537251 C181.184532,53.3455717 161.520092,46.1348335 142.495904,43.4466993 C136.511205,42.5718448 130.568588,42.132904 125.230153,42.4719479 L119.236436,16.5562762 L119.122213,16.6259013 C118.842667,14.4039526 117.80564,9.56652195 114.012224,6.56658844 C108.947323,2.58282206 112.719698,20.9123855 112.719698,20.9123855 L113.134508,20.7156189 L115.256657,43.7948248 L114.222636,44.6666521 C108.22661,46.4666454 102.038992,47.5407912 95.7906049,47.8663793 C96.9427929,46.7931447 97.8920005,45.5182235 98.5920812,44.1035969 C99.4093215,44.2734207 100.256721,44.0200127 100.849494,43.4285362 C101.046405,43.2198902 101.213347,42.984514 101.345463,42.7292581 C101.621501,42.2800745 101.843492,41.7994113 102.006756,41.2974028 C103.251189,37.9311808 104.609845,34.5558772 105.012632,30.9898614 C105.415419,27.4238456 104.754127,23.555112 102.370467,20.8821137 C99.9868075,18.2091154 95.6403111,17.1919836 92.7216056,19.2565191 C91.9671308,19.7893024 91.3268793,20.4976621 90.4972575,20.9033039 C87.9693159,22.1353654 85.1648338,20.1374279 82.811233,18.5935671 C80.075886,16.7984504 76.4628232,15.5118997 73.6282823,17.1405216 C72.7435085,17.6586015 72.0159788,18.4101276 71.5241692,19.3140354 C70.7467659,20.5548944 70.3814728,22.0126395 70.4811303,23.4764053 C70.6434476,25.8285227 71.9029096,28.0171725 73.5892059,29.63974 C74.1555939,30.2383091 74.8521948,30.6963292 75.6241839,30.9777527 C75.8206416,31.0385568 76.0217014,31.0831034 76.225359,31.1109485 C74.3265033,34.0044073 73.6494375,37.5400796 74.3436808,40.9371686 L73.2946301,47.3305688 C72.3628086,47.7695096 71.8427921,48.7291251 71.5512221,49.6675503 C67.1656493,49.797719 62.6778766,52.8248971 62.6778766,52.8248971 L45.4421846,70.1827363 C40.9724472,73.237159 44.0053759,78.8616559 44.0053759,78.8616559 L54.0600306,109.239388 L54.6161176,108.821638 C56.6781485,112.60561 62.7319824,123.049375 63.8952564,117.842628 C65.3170356,111.533989 60.8893805,105.806568 60.8893805,105.806568 L60.8352748,105.806568 L59.6900361,104.323251 L55.4818099,81.7405023 L60.805216,76.415696 L67.9592005,75.3652652 L68.2778233,122.126085 C55.1902399,156.844791 56.78636,172.755639 56.78636,172.755639 L68.2778233,216.153265 L69.7446907,215.908063 L70.0993841,217.336891 L70.2286367,217.291484 L70.8658824,220.494238 L69.7176379,220.494238 L68.2808292,224.835211 C68.2808292,224.835211 60.9404804,224.674771 61.0997918,226.282202 C61.2591032,227.889634 65.2509064,230.623176 75.4648725,227.729194 L78.3384898,224.835211 C78.3384898,224.835211 79.7752984,223.38822 76.9016811,220.494238 L76.6972816,220.494238 L75.9007245,214.875795 L76.9016811,214.706273 L68.2778233,171.299567 C75.4588607,165.351162 88.3871327,142.368825 88.3871327,142.368825 C88.3871327,142.368825 101.312399,165.354189 108.496442,171.299567 L99.878596,214.694165 L100.879553,214.863687 L100.095019,220.482129 L99.8906195,220.482129 C97.0170022,223.376111 98.4538109,224.823103 98.4538109,224.823103 L101.327428,227.717085 C111.547406,230.611067 115.533197,227.877525 115.692509,226.270094 C115.85182,224.662662 108.511471,224.823103 108.511471,224.823103 L107.074663,220.482129 L105.926418,220.482129 L106.753034,216.316732 L106.900322,215.871737 L108.511471,216.141156 L120.002935,172.743531 C120.002935,172.743531 119.789518,147.669414 108.631706,116.326012 L131.554516,148.698655 L149.69197,177.499227 C150.651577,175.170131 151.832359,172.939842 153.217863,170.839435 L166.341517,158.491576 C181.596337,149.352525 201.961145,148.804606 214.53773,149.558373 L226.134399,150.820707 L231.587058,121.892993 C234.764268,117.773003 239.480488,114.219096 246.33689,111.561234 C260.560695,106.05177 272.48801,94.3547535 272.391822,82.9816453 C272.599228,83.2147381 272.800621,83.4478308 272.992997,83.6839507 C273.140285,78.6527807 270.973049,73.6579368 265.646637,69.2655014 Z M108.210884,112.175751 L108.195854,111.642968 L108.857147,112.690371 L108.210884,112.175751 Z" id="Shape" fill="url(#linearGradient-1)" fill-rule="nonzero"></path>
                <path d="M63.799639,105.42971 L63.7455305,105.42971 L61.1934113,102 L57.0631266,106.303582 L57.5200431,107.017713 L57,107.149264 C57,107.149264 65.3357202,123.925089 66.7245059,117.557416 C68.1132915,111.189744 63.799639,105.42971 63.799639,105.42971 Z" id="Shape" fill="#FDB797" fill-rule="nonzero"></path>
                <path d="M80.0921835,48.6079682 C80.0921835,48.6079682 95.3792303,53.2198907 116.784723,46.3004869 C138.190216,39.381083 182.524768,56.2934924 182.524768,56.2934924 C182.524768,56.2934924 217.687696,56.2934924 269.670306,34 C269.670306,34 245.973418,57.0626528 262.790077,70.9014606 C279.606735,84.7402683 264.319688,104.726279 244.443807,112.414844 C224.567925,120.103408 223.041337,135.477496 224.567925,150.085465 C226.094514,164.693433 224.567925,150.854625 224.567925,150.854625 C224.567925,150.854625 164.943304,140.092459 149.653234,177 L73.9767602,57.065693 C73.9767602,57.065693 69.3909485,47.8418479 80.0921835,48.6079682 Z" id="83eae6ee-46c5-4585-a2a2-a187faac01c1" fill="#6C63FF" fill-rule="nonzero"></path>
                <g id="Clipped" transform="translate(117, 55)">
                    <mask id="mask-3" fill="white">
                        <use xlink:href="#path-2"></use>
                    </mask>
                    <g id="c8ed4358-d450-436c-89b2-67b880a93208"></g>
                    <g id="Group" mask="url(#mask-3)" fill="#000000" fill-rule="nonzero" opacity="0.1">
                        <g transform="translate(-75.2347, -29.7537)" id="Shape">
                            <polygon points="0.13898773 0.0546496815 190.385997 137.480382 201.846442 103.700807"></polygon>
                            <polygon points="11.5994325 43.0487686 117.036733 150.532548 132.31934 139.016645"></polygon>
                        </g>
                    </g>
                </g>
                <g id="Group" opacity="0.1" transform="translate(74, 34)" fill="#000000" fill-rule="nonzero">
                    <path d="M10.9921166,25.4456805 C10.9921166,25.4456805 26.2717025,30.0236095 47.6667485,23.1552071 C69.0617945,16.2868047 113.368666,33.077574 113.368666,33.077574 C113.368666,33.077574 141.800721,33.077574 185.322009,16.9748521 C188.763466,7.88538462 196.649509,0.262544379 196.649509,0.262544379 C144.680184,22.391716 109.546503,22.391716 109.546503,22.391716 C109.546503,22.391716 65.2305675,5.6039645 43.8385429,12.4723669 C22.4465184,19.3407692 7.16391104,14.7628402 7.16391104,14.7628402 C-3.53210123,13.9993491 1.05147239,23.1582249 1.05147239,23.1582249 L4.19682515,28.110355 C4.85248466,26.4415385 6.68047546,25.1378698 10.9921166,25.4456805 Z" id="Shape"></path>
                    <path d="M189.781702,36.8920118 C188.996523,36.2536749 188.263047,35.5544003 187.588113,34.8007101 C187.412868,39.306213 188.968926,43.787574 193.600844,47.5748521 C194.835271,48.5723218 195.966887,49.6904131 196.97885,50.9124852 C197.126902,46.0176923 195.002807,41.1591124 189.781702,36.8920118 Z" id="Shape"></path>
                </g>
                <polygon id="Shape" fill="#FDB797" fill-rule="nonzero" points="108 212.856267 106.600601 220 101 220 102.402402 210"></polygon>
                <polygon id="Shape" fill="#000000" fill-rule="nonzero" opacity="0.1" points="108 213 107.601015 214 102 212.667513 102.398985 212"></polygon>
                <polygon id="Shape" fill="#FDB797" fill-rule="nonzero" points="72 212.856267 73.4 220 79 220 77.6 210"></polygon>
                <polygon id="Shape" fill="#000000" fill-rule="nonzero" opacity="0.1" points="72 213.286181 72.3987823 215 78 212.858542 78 212"></polygon>
                <path d="M120,20.8858175 C120,20.8858175 119.836689,13.5891975 114.682975,9.57230818 C109.529261,5.55541889 113.38591,24 113.38591,24 L120,20.8858175 Z" id="Shape" fill="#FDB797" fill-rule="nonzero"></path>
                <path d="M78.2655611,218 L71.3278054,218 L69.9402543,222.594824 C69.9402543,222.594824 62.8476646,222.424159 63.0024987,224.124244 C63.1573327,225.824329 67.010318,228.719069 76.87801,225.653665 L79.6531122,222.594824 C79.6531122,222.594824 81.0406633,221.05884 78.2655611,218 Z" id="Shape" fill="#333333" fill-rule="nonzero"></path>
                <path d="M101.734439,218 L108.672195,218 L110.059746,222.594824 C110.059746,222.594824 117.152335,222.424159 116.997501,224.124244 C116.842667,225.824329 112.989682,228.719069 103.12199,225.653665 L100.346888,222.594824 C100.346888,222.594824 98.9593367,221.05884 101.734439,218 Z" id="Shape" fill="#333333" fill-rule="nonzero"></path>
                <path d="M109.687211,121 L70.3119455,121 C57.4967241,154.596349 59.0601449,169.996303 59.0601449,169.996303 L70.3119455,211.990989 L78.7628688,210.591266 L70.3119455,168.605591 C77.3443209,162.850508 90.0056149,140.608133 90.0056149,140.608133 C90.0056149,140.608133 102.660872,162.838494 109.687211,168.605591 L101.236288,210.600277 L109.687211,212 L120.939012,170.005314 C120.939012,170.005314 122.511487,154.596349 109.687211,121 Z" id="Shape" fill="#333333" fill-rule="nonzero"></path>
                <path d="M70,121 C70,121 92.1166373,127.75 109,121 L70,121 Z" id="Shape" fill="#000000" fill-rule="nonzero" opacity="0.1"></path>
                <path d="M68.751543,70.980745 L57.3706524,82.2430241 L61.644592,104.770603 L55.9541467,109 L45.9958674,79.4334964 C45.9958674,79.4334964 42.9918984,73.9594487 47.4184787,70.974703 L64.4928674,54.0782634 C64.4928674,54.0782634 71.819621,49.2204992 76.8567641,51.7098013 C81.8939073,54.1991033 68.6538529,70.8025062 68.6538529,70.8025062" id="Shape" fill="#F96060" fill-rule="nonzero"></path>
                <path d="M68,71.2927107 L69.4060494,122.222478 C69.4060494,122.222478 91.733872,130.721903 108.778449,122.222478 L107.3724,74.2796514 L107.013344,72.6951158 L107.27283,71.91499 L124.16956,57.818087 C128.801075,55.253082 126.354066,49.4977573 126.354066,49.4977573 L119.293647,19 L113.298324,22.6972498 L115.410416,45.6274835 L103.37753,55.6689467 L103.075802,55.6537692 L72.2302172,54.3181453" id="Shape" fill="#F96060" fill-rule="nonzero"></path>
                <rect id="Rectangle-path" fill="#FDB797" fill-rule="nonzero" x="84" y="47" width="11" height="12" rx="5.5"></rect>
                <path d="M85,51.3709368 C88.3296386,52.4940994 92.00681,52.0994355 95,50.2976558 C94.2529578,48.3223049 92.3104785,47.00608 90.1333333,47 L90.1333333,47 C87.5300871,47.0086153 85.3354853,48.8772774 85,51.3709368 L85,51.3709368 Z" id="Shape" fill="#000000" fill-rule="nonzero" opacity="0.1"></path>
                <circle id="Oval" fill="#FDB797" fill-rule="nonzero" cx="88.5" cy="39.5" r="12.5"></circle>
                <path d="M79.4624193,32.647615 C78.6702898,32.7442967 77.8665773,32.7004335 77.0907116,32.5181773 C76.3291428,32.2504977 75.6421776,31.8154707 75.0838821,31.2473341 C73.4176054,29.6999649 72.1770199,27.6348447 72.0158654,25.4049856 C71.8547109,23.1751265 72.9280606,20.8128879 74.9257682,19.7067836 C77.723167,18.1652979 81.2898505,19.3831893 83.9869078,21.0835304 C86.3069243,22.5544137 89.0769573,24.4400861 91.570291,23.2722048 C92.388226,22.8897751 93.0206814,22.2161105 93.7656409,21.7130684 C96.6451372,19.7567936 100.932455,20.7216931 103.282878,23.2545542 C105.633301,25.7874152 106.293122,29.4528565 105.888716,32.8358881 C105.484309,36.2189197 104.146423,39.4166201 102.918,42.6054951 C102.726838,43.2347325 102.402761,43.8187331 101.966276,44.3205451 C100.470276,45.8061372 97.6698366,44.6529647 96.6846657,42.8114188 C94.9727793,39.6078349 96.6846657,34.0537795 92.6406001,32.1857577 C89.4205508,30.7031073 82.9196393,32.4299243 79.4624193,32.647615 Z" id="Shape" fill="#000000" fill-rule="nonzero" opacity="0.1"></path>
                <path d="M80.4624193,31.647615 C79.6702898,31.7442967 78.8665773,31.7004335 78.0907116,31.5181773 C77.3291428,31.2504977 76.6421776,30.8154707 76.0838821,30.2473341 C74.4176054,28.6999649 73.1770199,26.6348447 73.0158654,24.4049856 C72.8547109,22.1751265 73.9280606,19.8128879 75.9257682,18.7067836 C78.723167,17.1652979 82.2898505,18.3831893 84.9869078,20.0835304 C87.3069243,21.5544137 90.0769573,23.4400861 92.570291,22.2722048 C93.388226,21.8897751 94.0206814,21.2161105 94.7656409,20.7130684 C97.6451372,18.7567936 101.932455,19.7216931 104.282878,22.2545542 C106.633301,24.7874152 107.293122,28.4528565 106.888716,31.8358881 C106.484309,35.2189197 105.128179,38.4166201 103.911919,41.6054951 C103.720757,42.2347325 103.39668,42.8187331 102.960195,43.3205451 C101.464195,44.8061372 98.6637553,43.6529647 97.6785844,41.8114188 C95.966698,38.6078349 97.6785844,33.0537795 93.6345188,31.1857577 C90.4296728,29.7031073 83.9165987,31.4328661 80.4624193,31.647615 Z" id="Shape" fill="#333333" fill-rule="nonzero"></path>
                <ellipse id="Oval" fill="#FDB797" fill-rule="nonzero" cx="95.5" cy="39.5" rx="1.5" ry="2.5"></ellipse>
                <polygon id="Shape" fill="#000000" fill-rule="nonzero" opacity="0.1" points="68 71 71 72.662 68 77"></polygon>
                <polygon id="Shape" fill="#000000" fill-rule="nonzero" opacity="0.1" points="107.841346 72 105 74.6322115 106.893029 77 108 74.3677885"></polygon>
                <path d="M90,58.599051 L90,61 C90,61 73.4223044,57.801898 73,53 L83.9409796,53.8003163 L90,58.599051 Z" id="Shape" fill="#6C63FF" fill-rule="nonzero"></path>
                <path d="M90,58.599051 L90,61 C90,61 106.577696,57.801898 107,53 L96.0590204,53.8003163 L90,58.599051 Z" id="Shape" fill="#6C63FF" fill-rule="nonzero"></path>
                <polygon id="Shape" fill="#000000" fill-rule="nonzero" opacity="0.1" points="192 84 247 96.7494704 227.138134 105"></polygon>
                <path d="M73,52.9984272 C73,52.9984272 73,48 76.3343819,48 C79.6687638,48 83,58 83,58 L73,52.9984272 Z" id="Shape" fill="#6C63FF" fill-rule="nonzero"></path>
                <circle id="Oval" fill="#F55F44" fill-rule="nonzero" opacity="0.5" cx="3.5" cy="87.5" r="1.5"></circle>
                <circle id="Oval" fill="#F55F44" fill-rule="nonzero" opacity="0.5" cx="28.5" cy="137.5" r="1.5"></circle>
                <circle id="Oval" fill="#F55F44" fill-rule="nonzero" opacity="0.5" cx="251.5" cy="4.5" r="1.5"></circle>
                <path d="M152.595895,7.54203156 C151.956107,7.26362501 151.626416,6.5506139 151.828957,5.88340173 C151.844717,5.83409546 151.854495,5.78307694 151.858081,5.73144149 L151.858081,5.73144149 C151.876977,5.42770512 151.694099,5.14758873 151.408265,5.04245191 C151.12243,4.9373151 150.801417,5.03208811 150.618684,5.27556078 L150.618684,5.27556078 C150.587392,5.31751927 150.561313,5.36311746 150.541019,5.41135504 C150.261361,6.04775392 149.55012,6.37530501 148.884174,6.17438942 C148.834825,6.15864303 148.783762,6.14887353 148.732081,6.14529065 L148.732081,6.14529065 C148.428079,6.12641168 148.147718,6.30912986 148.042489,6.59471426 C147.93726,6.88029866 148.032116,7.20103095 148.275802,7.38360492 L148.275802,7.38360492 C148.317797,7.41486943 148.363435,7.44092554 148.411715,7.46120164 C149.046139,7.74294237 149.370912,8.45293473 149.168945,9.11659827 C149.153185,9.16590454 149.143406,9.21692306 149.13982,9.26855851 L149.13982,9.26855851 C149.120925,9.57229488 149.303803,9.85241127 149.589637,9.95754809 C149.875471,10.0626849 150.196484,9.96791189 150.379218,9.72443922 L150.379218,9.72443922 C150.41051,9.68248073 150.436589,9.63688254 150.456883,9.58864496 C150.735533,8.94941661 151.449167,8.62001381 152.116963,8.82237738 C152.166313,8.83812377 152.217376,8.84789327 152.269056,8.85147615 L152.269056,8.85147615 C152.571868,8.86977973 152.851057,8.68812332 152.956759,8.40401775 C153.062462,8.11991217 152.969824,7.80015797 152.728572,7.61639508 L152.728572,7.61639508 C152.687426,7.58648222 152.642893,7.561522 152.595895,7.54203156 L152.595895,7.54203156 Z" id="Shape" fill="#4D8AF0" fill-rule="nonzero" opacity="0.5"></path>
                <path d="M254.589176,134.538748 C253.950774,134.260701 253.621796,133.548611 253.823898,132.882261 C253.839624,132.833018 253.849381,132.782066 253.85296,132.730497 L253.85296,132.730497 C253.871814,132.427153 253.689332,132.147398 253.404116,132.042397 C253.118901,131.937396 252.798583,132.032047 252.616245,132.275205 L252.616245,132.275205 C252.585021,132.317109 252.558998,132.362648 252.538748,132.410824 C252.260701,133.049226 251.548611,133.378204 250.882261,133.176102 C250.833018,133.160376 250.782066,133.150619 250.730497,133.14704 L250.730497,133.14704 C250.427153,133.128186 250.147398,133.310668 250.042397,133.595884 C249.937396,133.881099 250.032047,134.201417 250.275205,134.383755 L250.275205,134.383755 C250.317109,134.414979 250.362648,134.441002 250.410824,134.461252 C251.049226,134.739299 251.378204,135.451389 251.176102,136.117739 C251.160376,136.166982 251.150619,136.217934 251.14704,136.269503 L251.14704,136.269503 C251.128186,136.572847 251.310668,136.852602 251.595884,136.957603 C251.881099,137.062604 252.201417,136.967953 252.383755,136.724795 L252.383755,136.724795 C252.414979,136.682891 252.441002,136.637352 252.461252,136.589176 C252.739299,135.950774 253.451389,135.621796 254.117739,135.823898 C254.166982,135.839624 254.217934,135.849381 254.269503,135.85296 L254.269503,135.85296 C254.572847,135.871814 254.852602,135.689332 254.957603,135.404116 C255.062604,135.118901 254.967953,134.798583 254.724795,134.616245 L254.724795,134.616245 C254.682891,134.585021 254.637352,134.558998 254.589176,134.538748 Z" id="Shape" fill="#4D8AF0" fill-rule="nonzero" opacity="0.5"></path>
                <circle id="Oval" fill="#47E6B1" fill-rule="nonzero" opacity="0.5" cx="176.5" cy="193.5" r="1.5"></circle>
                <circle id="Oval" fill="#47E6B1" fill-rule="nonzero" opacity="0.5" cx="3.5" cy="179.5" r="1.5"></circle>
                <circle id="Oval" fill="#47E6B1" fill-rule="nonzero" opacity="0.5" cx="170.5" cy="27.5" r="1.5"></circle>
                <g id="Group" opacity="0.5" fill="#47E6B1" fill-rule="nonzero">
                    <polygon id="Rectangle-path" points="2.427 0 3.468 0 3.468 5.895 2.427 5.895"></polygon>
                    <polygon id="Rectangle-path" transform="translate(2.9475, 2.9475) rotate(90) translate(-2.9475, -2.9475)" points="2.427 1.42108547e-14 3.468 1.42108547e-14 3.468 5.895 2.427 5.895"></polygon>
                </g>
                <g id="Group" opacity="0.5" transform="translate(19, 57)" fill="#47E6B1" fill-rule="nonzero">
                    <polygon id="Rectangle-path" points="2.48 0.128571429 3.47142857 0.128571429 3.47142857 5.74285714 2.48 5.74285714"></polygon>
                    <polygon id="Rectangle-path" transform="translate(2.9757, 2.94) rotate(90) translate(-2.9757, -2.94)" points="2.47571429 0.132857143 3.46714286 0.132857143 3.46714286 5.74714286 2.47571429 5.74714286"></polygon>
                </g>
                <g id="Group" opacity="0.5" transform="translate(210, 31)" fill="#47E6B1" fill-rule="nonzero">
                    <polygon id="Rectangle-path" points="3.268 0.015 4.309 0.015 4.309 5.91 3.268 5.91"></polygon>
                    <polygon id="Rectangle-path" transform="translate(3.7915, 2.9625) rotate(90) translate(-3.7915, -2.9625)" points="3.271 0.015 4.312 0.015 4.312 5.91 3.271 5.91"></polygon>
                </g>
            </g>
        </g>
    </g>
</svg>