<?xml version="1.0" encoding="UTF-8"?>
<svg width="164px" height="171px" viewBox="0 0 164 171" version="1.1" xmlns="http://www.w3.org/2000/svg" xmlns:xlink="http://www.w3.org/1999/xlink">
    <title>undraw_confirmed_81ex</title>
    <defs>
        <linearGradient x1="50.003653%" y1="100.017289%" x2="50.003653%" y2="0.00485949042%" id="linearGradient-1">
            <stop stop-color="#808080" stop-opacity="0.25" offset="0%"></stop>
            <stop stop-color="#808080" stop-opacity="0.12" offset="54%"></stop>
            <stop stop-color="#808080" stop-opacity="0.1" offset="100%"></stop>
        </linearGradient>
        <linearGradient x1="45734%" y1="29483%" x2="45734%" y2="14549%" id="linearGradient-2">
            <stop stop-color="#808080" stop-opacity="0.25" offset="0%"></stop>
            <stop stop-color="#808080" stop-opacity="0.12" offset="54%"></stop>
            <stop stop-color="#808080" stop-opacity="0.1" offset="100%"></stop>
        </linearGradient>
        <linearGradient x1="59152%" y1="65418%" x2="59152%" y2="7222%" id="linearGradient-3">
            <stop stop-color="#808080" stop-opacity="0.25" offset="0%"></stop>
            <stop stop-color="#808080" stop-opacity="0.12" offset="54%"></stop>
            <stop stop-color="#808080" stop-opacity="0.1" offset="100%"></stop>
        </linearGradient>
        <linearGradient x1="77188%" y1="59991%" x2="77188%" y2="32265%" id="linearGradient-4">
            <stop stop-color="#808080" stop-opacity="0.25" offset="0%"></stop>
            <stop stop-color="#808080" stop-opacity="0.12" offset="54%"></stop>
            <stop stop-color="#808080" stop-opacity="0.1" offset="100%"></stop>
        </linearGradient>
        <linearGradient x1="68394%" y1="82736%" x2="68394%" y2="75836%" id="linearGradient-5">
            <stop stop-color="#808080" stop-opacity="0.25" offset="0%"></stop>
            <stop stop-color="#808080" stop-opacity="0.12" offset="54%"></stop>
            <stop stop-color="#808080" stop-opacity="0.1" offset="100%"></stop>
        </linearGradient>
        <linearGradient x1="43287%" y1="50119%" x2="43287%" y2="37779%" id="linearGradient-6">
            <stop stop-color="#808080" stop-opacity="0.25" offset="0%"></stop>
            <stop stop-color="#808080" stop-opacity="0.12" offset="54%"></stop>
            <stop stop-color="#808080" stop-opacity="0.1" offset="100%"></stop>
        </linearGradient>
        <linearGradient x1="42807%" y1="60348%" x2="42807%" y2="49395%" id="linearGradient-7">
            <stop stop-color="#808080" stop-opacity="0.25" offset="0%"></stop>
            <stop stop-color="#808080" stop-opacity="0.12" offset="54%"></stop>
            <stop stop-color="#808080" stop-opacity="0.1" offset="100%"></stop>
        </linearGradient>
        <linearGradient x1="35252%" y1="38093%" x2="35252%" y2="20104%" id="linearGradient-8">
            <stop stop-color="#808080" stop-opacity="0.25" offset="0%"></stop>
            <stop stop-color="#808080" stop-opacity="0.12" offset="54%"></stop>
            <stop stop-color="#808080" stop-opacity="0.1" offset="100%"></stop>
        </linearGradient>
        <linearGradient x1="44205%" y1="39965%" x2="44205%" y2="26262%" id="linearGradient-9">
            <stop stop-color="#808080" stop-opacity="0.25" offset="0%"></stop>
            <stop stop-color="#808080" stop-opacity="0.12" offset="54%"></stop>
            <stop stop-color="#808080" stop-opacity="0.1" offset="100%"></stop>
        </linearGradient>
    </defs>
    <g id="Page-1" stroke="none" stroke-width="1" fill="none" fill-rule="evenodd">
        <g id="Successful" transform="translate(-106, -170)">
            <g id="Group-2" transform="translate(23, 170)">
                <g id="undraw_confirmed_81ex" transform="translate(84, 0)">
                    <path d="M81,156 C118.003078,156 148,126.003078 148,89 C148,51.9969218 118.003078,22 81,22 C43.9969218,22 14,51.9969218 14,89 C14,126.003078 43.9969218,156 81,156 Z" id="Oval" stroke="#6074F9" stroke-width="2" opacity="0.200000003" stroke-dasharray="12"></path>
                    <path d="M81,170 C125.735065,170 162,133.735065 162,89 C162,44.2649353 125.735065,8 81,8 C36.2649353,8 0,44.2649353 0,89 C0,133.735065 36.2649353,170 81,170 Z" id="Oval" stroke="#6074F9" stroke-width="2" opacity="0.200000003" stroke-dasharray="12"></path>
                    <path d="M136,114.257744 C136.002317,104.837572 128.779579,96.9630775 119.32782,96.0811213 C109.876062,95.1991651 101.300514,101.599501 99.5329644,110.854956 L43,109.333366 L43.6206191,118.970852 C43.6206191,118.970852 35.5593658,137.427716 77.9268124,142.345351 L77.9268124,161 L126.905891,161 L126.905891,129.983837 C132.534017,126.713726 135.994646,120.729393 136,114.257744 Z" id="Shape" fill="url(#linearGradient-1)" fill-rule="nonzero"></path>
                    <path d="M45.5997745,120.32519 C45.5997745,120.32519 37.9154453,138.180873 78.3055242,142.944508 L78.3055242,161 L125,161 L125,113.184279 L45,111 L45.5997745,120.32519 Z" id="Shape" fill="#F2B396" fill-rule="nonzero"></path>
                    <path d="M68.6665706,46.0776499 L68.6665706,46.0776499 C66.0851063,49.9978893 60.6984923,51.1758746 56.6101219,48.7142449 L31.0757118,32.5211758 C27.0021932,30.0368473 25.7781493,24.8529221 28.3360274,20.9183898 L28.3360274,20.9183898 C30.9171151,17.0035322 36.2968353,15.8261574 40.3832902,18.2817948 L65.9177003,34.474864 C69.9944584,36.9562859 71.2227514,42.1408235 68.6665706,46.0776499 Z" id="Shape" fill="url(#linearGradient-2)" fill-rule="nonzero"></path>
                    <path d="M67.7860261,44.3171713 L67.7860261,44.3171713 C65.4454865,47.997936 60.5616679,49.104032 56.8548008,46.7928949 L33.695387,31.5769056 C30.0020711,29.24432 28.8922033,24.3770985 31.2112213,20.6828287 L31.2112213,20.6828287 C33.5517609,17.002064 38.4355795,15.895968 42.1424466,18.2071051 L65.2973803,33.4141649 C68.9977384,35.7456414 70.1102997,40.6198841 67.7860261,44.3171713 Z" id="Shape" fill="#F2B396" fill-rule="nonzero"></path>
                    <circle id="Oval" fill="#F2B396" fill-rule="nonzero" cx="115.5" cy="115.5" r="17.5"></circle>
                    <path d="M55.25,0 L102.75,0 C109.515488,-1.24280002e-15 115,5.48451181 115,12.25 L115,118.75 C115,125.515488 109.515488,131 102.75,131 L55.25,131 C48.4845118,131 43,125.515488 43,118.75 L43,12.25 C43,5.48451181 48.4845118,8.28533345e-16 55.25,0 Z" id="Rectangle-path" fill="url(#linearGradient-3)" fill-rule="nonzero"></path>
                    <path d="M56.64,2 L100.36,2 C107.893164,2 114,8.10683601 114,15.64 L114,116.36 C114,123.893164 107.893164,130 100.36,130 L56.64,130 C49.106836,130 43,123.893164 43,116.36 L43,15.64 C43,8.10683601 49.106836,2 56.64,2 Z" id="Rectangle-path" fill="#FFFFFF" fill-rule="nonzero"></path>
                    <path d="M97.219686,5 C96.7980537,7.79154067 94.4042519,9.85800767 91.5825751,9.86627832 L67.2218012,9.86627832 C64.4009777,9.85689977 62.0084406,7.79070041 61.5869388,5 L48.6802707,5 C47.9696258,5 47.2878828,5.28144294 46.78517,5.78400946 C46.2824572,6.28657599 46,6.96845587 46,7.67949071 L46,123.31826 C46,124.029294 46.2812887,124.711411 46.7835798,125.214399 C47.2858709,125.717388 47.967377,126 48.6780221,126 L110.319729,126 C111.030374,126 111.712117,125.718557 112.21483,125.215991 C112.717543,124.713424 113,124.031544 113,123.320509 L113,7.68174049 C113,6.9707059 112.718711,6.28858907 112.21642,5.78560058 C111.714129,5.28261208 111.032623,5 110.321978,5 L97.219686,5 Z" id="Shape" fill="#F96060" fill-rule="nonzero"></path>
                    <path d="M72,6 L86,6 C86.5522847,6 87,6.44771525 87,7 C87,7.55228475 86.5522847,8 86,8 L72,8 C71.4477153,8 71,7.55228475 71,7 C71,6.44771525 71.4477153,6 72,6 Z" id="Rectangle-path" fill="#DBDBDB" fill-rule="nonzero"></path>
                    <circle id="Oval" fill="#DBDBDB" fill-rule="nonzero" cx="91" cy="7" r="1"></circle>
                    <path d="M126.267017,117.764355 L126.267017,117.764355 C121.277682,118.931642 117.853455,115.639982 116.699519,110.595156 L105.235321,67.5329993 C104.094651,62.4685982 107.210358,57.4227914 112.20978,56.2380441 L112.20978,56.2380441 C117.216256,55.0841755 122.20435,58.2359317 123.375546,63.2931982 L132.730826,107.466737 C133.884762,112.5138 131.254142,116.597068 126.267017,117.764355 Z" id="Shape" fill="url(#linearGradient-4)" fill-rule="nonzero"></path>
                    <path d="M121,58 C125.418278,58 129,61.581722 129,66 L129,114 C129,118.418278 125.418278,122 121,122 C116.581722,122 113,118.418278 113,114 L113,66 C113,61.581722 116.581722,58 121,58 Z" id="Rectangle-path" fill="#F2B396" fill-rule="nonzero" transform="translate(121, 90) rotate(-13.01) translate(-121, -90)"></path>
                    <polygon id="Rectangle-path" fill="url(#linearGradient-5)" fill-rule="nonzero" points="67 154 134 154 134 170 67 170"></polygon>
                    <polygon id="Rectangle-path" fill="#6074F9" fill-rule="nonzero" points="68 156 131 156 131 168 68 168"></polygon>
                    <path d="M58.7331795,92.0207873 L58.7331795,92.0207873 C56.2857169,95.9976428 51.1777248,97.1928773 47.3008563,94.6958713 L30.8653764,83.7482207 C27.0022898,81.2286797 25.8412482,75.970256 28.2668205,71.9792127 L28.2668205,71.9792127 C30.7142831,68.0023572 35.8222752,66.8071227 39.6991437,69.3041287 L56.1346236,80.2517793 C59.9977102,82.7713203 61.1587518,88.029744 58.7331795,92.0207873 L58.7331795,92.0207873 Z" id="Shape" fill="url(#linearGradient-6)" fill-rule="nonzero"></path>
                    <path d="M53.7177358,115.121317 L53.7177358,115.121317 C51.2387884,118.997492 46.064101,120.162697 42.1366377,117.729079 L31.9163298,110.348455 C28.0025326,107.893337 26.8260179,102.768392 29.2832563,98.878683 L29.2832563,98.878683 C31.7622036,95.0025083 36.936891,93.8373031 40.8643543,96.2709206 L51.0846623,103.653737 C54.9971115,106.108766 56.1734731,111.232064 53.7177358,115.121317 L53.7177358,115.121317 Z" id="Shape" fill="url(#linearGradient-7)" fill-rule="nonzero"></path>
                    <g id="Group" opacity="0.5" transform="translate(59, 46)" fill="url(#linearGradient-8)" fill-rule="nonzero">
                        <ellipse id="Oval" cx="20.5045304" cy="19.9977778" rx="20.3731492" ry="19.9866667"></ellipse>
                    </g>
                    <circle id="Oval" fill="#FFFFFF" fill-rule="nonzero" cx="79" cy="65" r="19"></circle>
                    <polygon id="Shape" fill="#F96060" fill-rule="nonzero" points="78.1992062 69.28448 88.3984124 55 92 57.85776 78.1992062 75 68 64.143536 71.000567 62.998704"></polygon>
                    <path d="M54.7709007,115.282386 L54.7709007,115.282386 C52.3827005,118.997916 47.3994321,120.11446 43.6170817,117.781494 L33.7706366,110.714586 C30.0021133,108.359969 28.8696451,103.446776 31.2358855,99.7176135 L31.2358855,99.7176135 C33.6240857,96.0020835 38.6073541,94.8855403 42.3897045,97.2185064 L52.233864,104.298934 C55.9948488,106.652255 57.1274267,111.555461 54.7709007,115.282386 L54.7709007,115.282386 Z" id="Shape" fill="#F2B396" fill-rule="nonzero"></path>
                    <path d="M56.8100335,91.3056726 L56.8100335,91.3056726 C54.5105661,94.9979295 49.7124495,96.1074791 46.0706312,93.789126 L30.6305397,83.6224184 C27.0020347,81.28255 25.9116431,76.4001317 28.1899665,72.6943274 L28.1899665,72.6943274 C30.4894339,69.0020705 35.2875505,67.8925209 38.9293688,70.210874 L54.3694603,80.3775816 C57.9979653,82.71745 59.0883569,87.5998683 56.8100335,91.3056726 Z" id="Shape" fill="#F2B396" fill-rule="nonzero"></path>
                    <path d="M64.675454,70.015238 L64.675454,70.015238 C62.1153564,73.9978808 56.7745228,75.1945435 52.7206051,72.6938317 L31.0408271,58.7737414 C27.0021491,56.2491642 25.7886494,50.982433 28.324546,46.984762 L28.324546,46.984762 C30.8846436,43.0021192 36.2254772,41.8054565 40.2793949,44.3061683 L61.9591729,58.2262586 C65.9978509,60.7508358 67.2113506,66.017567 64.675454,70.015238 Z" id="Shape" fill="url(#linearGradient-9)" fill-rule="nonzero"></path>
                    <path d="M61.7779899,69.272088 L61.7779899,69.272088 C59.4153654,72.9979107 54.4854639,74.117547 50.7436194,71.7781182 L30.7302561,58.7553484 C27.0020906,56.3942086 25.8817503,51.467405 28.2226501,47.727912 L28.2226501,47.727912 C30.5852746,44.0020893 35.5151762,42.882453 39.2570206,45.2218818 L59.2681228,58.2446516 C62.9970855,60.6050487 64.1184716,65.5320086 61.7779899,69.272088 Z" id="Shape" fill="#F2B396" fill-rule="nonzero"></path>
                </g>
            </g>
        </g>
    </g>
</svg>