<?xml version="1.0" encoding="UTF-8"?>
<svg width="149px" height="149px" viewBox="0 0 149 149" version="1.1" xmlns="http://www.w3.org/2000/svg" xmlns:xlink="http://www.w3.org/1999/xlink">
    <title>Page 1</title>
    <defs>
        <polygon id="path-1" points="0 0 149 0 149 149 0 149"></polygon>
    </defs>
    <g id="Page-1" stroke="none" stroke-width="1" fill="none" fill-rule="evenodd">
        <g id="Walkthrough-" transform="translate(-113, -296)">
            <g id="Page-1" transform="translate(113, 296)">
                <mask id="mask-2" fill="white">
                    <use xlink:href="#path-1"></use>
                </mask>
                <g id="Clip-2"></g>
                <path d="M48.9190966,10.6023107 L10.595902,48.948684 C-3.53196734,63.0853279 -3.53196734,86.0050205 10.595902,100.141435 L48.9190966,138.487808 C59.6324438,149.207635 76.2389472,152.002064 89.896806,145.60679 C84.0167376,143.977185 78.4668476,140.862946 73.8500905,136.243626 L62.6233365,125.009852 C62.5836141,124.970795 62.5404475,124.936793 62.5011843,124.897506 L24.1779897,86.551362 C17.5512314,79.9203659 17.5512314,69.1697527 24.1779897,62.5389864 L62.5011843,24.1926131 C69.1279425,17.5618468 79.8720575,17.5618468 86.4988157,24.1926131 L124.82201,62.5389864 C131.448769,69.1697527 131.448769,79.9203659 124.82201,86.551362 L100.465729,110.922375 C100.103864,111.284228 99.5176715,111.284228 99.1560366,110.922375 L78.7005901,90.4545562 L61.813504,73.5574862 L73.5130238,61.85112 L100.019368,88.3732662 L106.230763,82.1583443 C110.301509,78.0851363 110.301509,71.4812506 106.230763,67.4080426 L82.2700985,43.4328863 C77.4336051,38.5934676 69.5922128,38.5934676 64.7557194,43.4328863 L43.4059441,64.7955744 C38.5699099,69.6347633 38.5699099,77.480209 43.4059441,82.3191682 L65.1185024,104.044859 L85.5739489,124.512677 C93.4366948,132.380179 106.184841,132.380179 114.047587,124.512677 L138.404098,100.141435 C152.531967,86.0050205 152.531967,63.0853279 138.404098,48.948684 L100.080903,10.6023107 C85.9530341,-3.53410355 63.0471955,-3.53410355 48.9190966,10.6023107" id="Fill-1" fill="#DE4949" mask="url(#mask-2)"></path>
            </g>
        </g>
    </g>
</svg>